<svg width="41" height="40" viewBox="0 0 41 40" fill="none" xmlns="http://www.w3.org/2000/svg">
<path d="M17.7281 0.015625C14.64 0.398604 11.7663 1.46243 9.2644 3.05108L14.3255 4.29931L17.7281 0.015625Z" fill="#181818"/>
<path d="M11.8235 7.46235L14.3255 4.29923L9.2644 3.06519L11.8235 7.46235Z" fill="#181818"/>
<path d="M11.8235 7.46235L9.26437 3.06519L8.2207 8.17157L11.8235 7.46235Z" fill="#181818"/>
<path d="M9.26425 3.06519C6.77661 4.63965 4.67497 6.73894 3.07373 9.19284L8.22058 8.15738L9.26425 3.06519Z" fill="#181818"/>
<path d="M7.50574 11.7319L8.22058 8.17163L3.07373 9.20709L7.50574 11.7319Z" fill="#181818"/>
<path d="M14.3254 4.29931L17.7281 5.15037V0.015625L14.3254 4.29931Z" fill="#181818"/>
<path d="M0 17.6042H5.16115L4.31764 13.9446L0 17.6042Z" fill="#181818"/>
<path d="M7.50574 11.7319L3.07373 9.20703L4.31755 14.2283L7.50574 11.7319Z" fill="#181818"/>
<path d="M3.07381 9.20703C1.45827 11.6893 0.386014 14.5404 0 17.6042L4.31764 14.2283L3.07381 9.20703Z" fill="#181818"/>
<path d="M14.3254 4.29932L11.8235 7.44825C13.5677 6.29932 15.5693 5.49081 17.7281 5.1362L14.3254 4.29932Z" fill="#181818"/>
<path d="M11.8235 7.4624L8.235 8.17162L7.50586 11.7319C8.6496 10.044 10.1079 8.58297 11.8235 7.4624Z" fill="#181818"/>
<path d="M7.50592 11.7319L4.33203 14.2142L5.17554 17.5901C5.51867 15.4624 6.33358 13.4766 7.50592 11.7319Z" fill="#181818"/>
<path d="M0 22.2993C0.386014 25.3631 1.45828 28.2142 3.05952 30.6965L4.31764 25.6752L0 22.2993Z" fill="#181818"/>
<path d="M7.49158 28.1576L4.31769 25.6753L3.05957 30.6966L7.49158 28.1576Z" fill="#181818"/>
<path d="M3.07373 30.6965C4.66068 33.1646 6.7766 35.2497 9.24995 36.8384L8.20629 31.732L3.07373 30.6965Z" fill="#181818"/>
<path d="M11.8092 32.4412L8.2207 31.7178L9.25007 36.8383L11.8092 32.4412Z" fill="#181818"/>
<path d="M4.31764 25.6752L5.16115 22.2993H0L4.31764 25.6752Z" fill="#181818"/>
<path d="M17.7281 39.8879V34.7673L14.0396 35.59L17.7281 39.8879Z" fill="#181818"/>
<path d="M11.8091 32.4412L9.25 36.8383L14.3111 35.5901L11.8091 32.4412Z" fill="#181818"/>
<path d="M9.25 36.8383C11.7519 38.4269 14.6256 39.505 17.728 39.8879L14.3254 35.6042L9.25 36.8383Z" fill="#181818"/>
<path d="M4.31763 25.6752L7.49152 28.1575C6.33348 26.427 5.51856 24.4412 5.16114 22.2993L4.31763 25.6752Z" fill="#181818"/>
<path d="M7.49146 28.1575L8.2063 31.7178L11.7948 32.4412C10.0935 31.3064 8.6352 29.8596 7.49146 28.1575Z" fill="#181818"/>
<path d="M11.8091 32.4412L14.311 35.5901L17.728 34.7674C15.5691 34.3986 13.5676 33.5901 11.8091 32.4412Z" fill="#181818"/>
<path d="M22.4604 39.8879C25.5486 39.505 28.4222 38.4411 30.9242 36.8525L25.8631 35.6042L22.4604 39.8879Z" fill="#181818"/>
<path d="M28.365 32.4412L25.863 35.5901L30.9098 36.8383L28.365 32.4412Z" fill="#181818"/>
<path d="M28.365 32.4412L30.9098 36.8383L31.9535 31.7319L28.365 32.4412Z" fill="#181818"/>
<path d="M30.9099 36.8384C33.3976 35.2639 35.4992 33.1646 37.1004 30.7107L31.9536 31.7462L30.9099 36.8384Z" fill="#181818"/>
<path d="M32.6828 28.1716L31.9536 31.7319L37.1005 30.7106V30.6965L32.6828 28.1716Z" fill="#181818"/>
<path d="M25.8631 35.59L22.4604 34.7673V39.8879L25.8631 35.59Z" fill="#181818"/>
<path d="M40.1741 22.2993H35.0129L35.8565 25.9589L40.1741 22.2993Z" fill="#181818"/>
<path d="M32.6826 28.1717L37.1003 30.6966L35.8565 25.6753L32.6826 28.1717Z" fill="#181818"/>
<path d="M37.1003 30.6965C38.7015 28.2142 39.7881 25.3632 40.1741 22.2852L35.8564 25.661L37.1003 30.6965Z" fill="#181818"/>
<path d="M25.8631 35.5901L28.365 32.4412C26.6208 33.5901 24.6193 34.3986 22.4604 34.7532L25.8631 35.5901Z" fill="#181818"/>
<path d="M28.365 32.4553L31.9535 31.7461L32.6826 28.1858C31.5389 29.8595 30.0663 31.3205 28.365 32.4553Z" fill="#181818"/>
<path d="M32.6826 28.1716L35.8565 25.6894L35.013 22.3135C34.6556 24.4411 33.8407 26.4269 32.6826 28.1716Z" fill="#181818"/>
<path d="M40.1741 17.6042C39.7881 14.5404 38.7158 11.6893 37.1146 9.20703L35.8564 14.2283L40.1741 17.6042Z" fill="#181818"/>
<path d="M32.6826 11.746L35.8565 14.2283L37.1146 9.20703L32.6826 11.746Z" fill="#181818"/>
<path d="M32.6825 11.7461L37.1145 9.20706L31.9534 8.18579L32.6825 11.7461Z" fill="#181818"/>
<path d="M37.1145 9.20703C35.5275 6.73894 33.4116 4.65384 30.9382 3.06519L31.9819 8.17157L37.1145 9.20703Z" fill="#181818"/>
<path d="M28.365 7.46235L31.9535 8.18575L30.9241 3.06519L28.365 7.46235Z" fill="#181818"/>
<path d="M35.8565 14.2283L35.0129 17.6042H40.1741L35.8565 14.2283Z" fill="#181818"/>
<path d="M22.4604 0.015625V5.15037L26.149 4.3135L22.4604 0.015625Z" fill="#181818"/>
<path d="M28.365 7.46235L30.9241 3.06519L25.863 4.31341L28.365 7.46235Z" fill="#181818"/>
<path d="M30.9241 3.06527C28.4221 1.47662 25.5485 0.398604 22.446 0.015625L25.8487 4.29931L30.9241 3.06527Z" fill="#181818"/>
<path d="M35.8565 14.2284L32.6826 11.7461C33.8407 13.4766 34.6556 15.4624 35.013 17.6043L35.8565 14.2284Z" fill="#181818"/>
<path d="M32.6825 11.7461L31.9677 8.18581L28.3792 7.4624C30.0805 8.59715 31.553 10.044 32.6825 11.7461Z" fill="#181818"/>
<path d="M28.365 7.46241L25.8631 4.31348L22.4604 5.15036C24.6193 5.50497 26.6208 6.31348 28.365 7.46241Z" fill="#181818"/>
<path d="M20.0869 7.74609L16.4841 13.9305H23.704L20.0869 7.74609Z" fill="#181818"/>
<path d="M23.704 13.9304L20.0869 20.129H27.2925L23.704 13.9304Z" fill="#181818"/>
<path d="M27.2926 20.1292L23.7041 26.3277H30.9097L27.2926 20.1292Z" fill="#181818"/>
<path d="M16.4841 26.3277L20.0869 20.1292H12.8813L16.4841 26.3277Z" fill="#181818"/>
<path d="M23.704 26.3277L27.2925 20.1292H20.0869L23.704 26.3277Z" fill="#181818"/>
<path d="M20.0869 20.129L23.704 13.9304H16.4841L20.0869 20.129Z" fill="#181818"/>
<path d="M12.8814 20.1292L9.27856 26.3277H16.4842L12.8814 20.1292Z" fill="#181818"/>
<path d="M20.0869 7.74609L16.4841 13.9305H23.704L20.0869 7.74609Z" fill="#181818"/>
<path d="M23.704 13.9304L20.0869 20.129H27.2925L23.704 13.9304Z" fill="#181818"/>
<path d="M27.2926 20.1292L23.7041 26.3277H30.9097L27.2926 20.1292Z" fill="#181818"/>
<path d="M16.4841 26.3277L20.0869 20.1292H12.8813L16.4841 26.3277Z" fill="#181818"/>
<path d="M23.704 26.3277L27.2925 20.1292H20.0869L23.704 26.3277Z" fill="#181818"/>
<path d="M20.0869 20.129L23.704 13.9304H16.4841L20.0869 20.129Z" fill="#181818"/>
<path d="M12.8814 20.1292L9.27856 26.3277H16.4842L12.8814 20.1292Z" fill="#181818"/>
<path d="M7.49145 28.1575L8.22058 31.7178L3.07373 30.6965L7.49145 28.1575Z" fill="#181818"/>
</svg>
