<svg width="98" height="40" viewBox="0 0 98 40" fill="none" xmlns="http://www.w3.org/2000/svg">
<path d="M17.7281 0.015625C14.64 0.398604 11.7663 1.46243 9.2644 3.05108L14.3255 4.29931L17.7281 0.015625Z" fill="#181818"/>
<path d="M11.8235 7.46235L14.3255 4.29923L9.2644 3.06519L11.8235 7.46235Z" fill="#181818"/>
<path d="M11.8235 7.46235L9.26437 3.06519L8.2207 8.17157L11.8235 7.46235Z" fill="#181818"/>
<path d="M9.26425 3.06519C6.77661 4.63965 4.67497 6.73894 3.07373 9.19284L8.22058 8.15738L9.26425 3.06519Z" fill="#181818"/>
<path d="M7.50574 11.7319L8.22058 8.17163L3.07373 9.20709L7.50574 11.7319Z" fill="#181818"/>
<path d="M14.3254 4.29931L17.7281 5.15037V0.015625L14.3254 4.29931Z" fill="#181818"/>
<path d="M0 17.6042H5.16115L4.31764 13.9446L0 17.6042Z" fill="#181818"/>
<path d="M7.50574 11.7319L3.07373 9.20703L4.31755 14.2283L7.50574 11.7319Z" fill="#181818"/>
<path d="M3.07381 9.20703C1.45827 11.6893 0.386014 14.5404 0 17.6042L4.31764 14.2283L3.07381 9.20703Z" fill="#181818"/>
<path d="M14.3254 4.29932L11.8235 7.44825C13.5677 6.29932 15.5693 5.49081 17.7281 5.1362L14.3254 4.29932Z" fill="#181818"/>
<path d="M11.8235 7.4624L8.235 8.17162L7.50586 11.7319C8.6496 10.044 10.1079 8.58297 11.8235 7.4624Z" fill="#181818"/>
<path d="M7.50592 11.7319L4.33203 14.2142L5.17554 17.5901C5.51867 15.4624 6.33358 13.4766 7.50592 11.7319Z" fill="#181818"/>
<path d="M0 22.2993C0.386014 25.3631 1.45828 28.2142 3.05952 30.6965L4.31764 25.6752L0 22.2993Z" fill="#181818"/>
<path d="M7.49158 28.1576L4.31769 25.6753L3.05957 30.6966L7.49158 28.1576Z" fill="#181818"/>
<path d="M3.07373 30.6965C4.66068 33.1646 6.7766 35.2497 9.24995 36.8384L8.20629 31.732L3.07373 30.6965Z" fill="#181818"/>
<path d="M11.8092 32.4412L8.2207 31.7178L9.25007 36.8383L11.8092 32.4412Z" fill="#181818"/>
<path d="M4.31764 25.6752L5.16115 22.2993H0L4.31764 25.6752Z" fill="#181818"/>
<path d="M17.7281 39.8879V34.7673L14.0396 35.59L17.7281 39.8879Z" fill="#181818"/>
<path d="M11.8091 32.4412L9.25 36.8383L14.3111 35.5901L11.8091 32.4412Z" fill="#181818"/>
<path d="M9.25 36.8383C11.7519 38.4269 14.6256 39.505 17.728 39.8879L14.3254 35.6042L9.25 36.8383Z" fill="#181818"/>
<path d="M4.31763 25.6752L7.49152 28.1575C6.33348 26.427 5.51856 24.4412 5.16114 22.2993L4.31763 25.6752Z" fill="#181818"/>
<path d="M7.49146 28.1575L8.2063 31.7178L11.7948 32.4412C10.0935 31.3064 8.6352 29.8596 7.49146 28.1575Z" fill="#181818"/>
<path d="M11.8091 32.4412L14.311 35.5901L17.728 34.7674C15.5691 34.3986 13.5676 33.5901 11.8091 32.4412Z" fill="#181818"/>
<path d="M22.4604 39.8879C25.5486 39.505 28.4222 38.4411 30.9242 36.8525L25.8631 35.6042L22.4604 39.8879Z" fill="#181818"/>
<path d="M28.365 32.4412L25.863 35.5901L30.9098 36.8383L28.365 32.4412Z" fill="#181818"/>
<path d="M28.365 32.4412L30.9098 36.8383L31.9535 31.7319L28.365 32.4412Z" fill="#181818"/>
<path d="M30.9099 36.8384C33.3976 35.2639 35.4992 33.1646 37.1004 30.7107L31.9536 31.7462L30.9099 36.8384Z" fill="#181818"/>
<path d="M32.6828 28.1716L31.9536 31.7319L37.1005 30.7106V30.6965L32.6828 28.1716Z" fill="#181818"/>
<path d="M25.8631 35.59L22.4604 34.7673V39.8879L25.8631 35.59Z" fill="#181818"/>
<path d="M40.1741 22.2993H35.0129L35.8565 25.9589L40.1741 22.2993Z" fill="#181818"/>
<path d="M32.6826 28.1717L37.1003 30.6966L35.8565 25.6753L32.6826 28.1717Z" fill="#181818"/>
<path d="M37.1003 30.6965C38.7015 28.2142 39.7881 25.3632 40.1741 22.2852L35.8564 25.661L37.1003 30.6965Z" fill="#181818"/>
<path d="M25.8631 35.5901L28.365 32.4412C26.6208 33.5901 24.6193 34.3986 22.4604 34.7532L25.8631 35.5901Z" fill="#181818"/>
<path d="M28.365 32.4553L31.9535 31.7461L32.6826 28.1858C31.5389 29.8595 30.0663 31.3205 28.365 32.4553Z" fill="#181818"/>
<path d="M32.6826 28.1716L35.8565 25.6894L35.013 22.3135C34.6556 24.4411 33.8407 26.4269 32.6826 28.1716Z" fill="#181818"/>
<path d="M40.1741 17.6042C39.7881 14.5404 38.7158 11.6893 37.1146 9.20703L35.8564 14.2283L40.1741 17.6042Z" fill="#181818"/>
<path d="M32.6826 11.746L35.8565 14.2283L37.1146 9.20703L32.6826 11.746Z" fill="#181818"/>
<path d="M32.6825 11.7461L37.1145 9.20706L31.9534 8.18579L32.6825 11.7461Z" fill="#181818"/>
<path d="M37.1145 9.20703C35.5275 6.73894 33.4116 4.65384 30.9382 3.06519L31.9819 8.17157L37.1145 9.20703Z" fill="#181818"/>
<path d="M28.365 7.46235L31.9535 8.18575L30.9241 3.06519L28.365 7.46235Z" fill="#181818"/>
<path d="M35.8565 14.2283L35.0129 17.6042H40.1741L35.8565 14.2283Z" fill="#181818"/>
<path d="M22.4604 0.015625V5.15037L26.149 4.3135L22.4604 0.015625Z" fill="#181818"/>
<path d="M28.365 7.46235L30.9241 3.06519L25.863 4.31341L28.365 7.46235Z" fill="#181818"/>
<path d="M30.9241 3.06527C28.4221 1.47662 25.5485 0.398604 22.446 0.015625L25.8487 4.29931L30.9241 3.06527Z" fill="#181818"/>
<path d="M35.8565 14.2284L32.6826 11.7461C33.8407 13.4766 34.6556 15.4624 35.013 17.6043L35.8565 14.2284Z" fill="#181818"/>
<path d="M32.6825 11.7461L31.9677 8.18581L28.3792 7.4624C30.0805 8.59715 31.553 10.044 32.6825 11.7461Z" fill="#181818"/>
<path d="M28.365 7.46241L25.8631 4.31348L22.4604 5.15036C24.6193 5.50497 26.6208 6.31348 28.365 7.46241Z" fill="#181818"/>
<path d="M20.0869 7.74609L16.4841 13.9305H23.704L20.0869 7.74609Z" fill="#181818"/>
<path d="M23.704 13.9304L20.0869 20.129H27.2925L23.704 13.9304Z" fill="#181818"/>
<path d="M27.2926 20.1292L23.7041 26.3277H30.9097L27.2926 20.1292Z" fill="#181818"/>
<path d="M16.4841 26.3277L20.0869 20.1292H12.8813L16.4841 26.3277Z" fill="#181818"/>
<path d="M23.704 26.3277L27.2925 20.1292H20.0869L23.704 26.3277Z" fill="#181818"/>
<path d="M20.0869 20.129L23.704 13.9304H16.4841L20.0869 20.129Z" fill="#181818"/>
<path d="M12.8814 20.1292L9.27856 26.3277H16.4842L12.8814 20.1292Z" fill="#181818"/>
<path d="M20.0869 7.74609L16.4841 13.9305H23.704L20.0869 7.74609Z" fill="#181818"/>
<path d="M23.704 13.9304L20.0869 20.129H27.2925L23.704 13.9304Z" fill="#181818"/>
<path d="M27.2926 20.1292L23.7041 26.3277H30.9097L27.2926 20.1292Z" fill="#181818"/>
<path d="M16.4841 26.3277L20.0869 20.1292H12.8813L16.4841 26.3277Z" fill="#181818"/>
<path d="M23.704 26.3277L27.2925 20.1292H20.0869L23.704 26.3277Z" fill="#181818"/>
<path d="M20.0869 20.129L23.704 13.9304H16.4841L20.0869 20.129Z" fill="#181818"/>
<path d="M12.8814 20.1292L9.27856 26.3277H16.4842L12.8814 20.1292Z" fill="#181818"/>
<path d="M7.49145 28.1575L8.22058 31.7178L3.07373 30.6965L7.49145 28.1575Z" fill="#181818"/>
<path d="M51.1208 10.7283C51.1208 10.2035 50.9492 9.80633 50.6347 9.55101C50.3201 9.29569 49.8912 9.16803 49.348 9.16803C48.9477 9.16803 48.5616 9.25314 48.2042 9.40916C47.8468 9.56519 47.5466 9.76377 47.3035 10.0049L46.5601 9.11129C46.9175 8.78505 47.3464 8.51555 47.8611 8.33115C48.3758 8.14675 48.9191 8.04746 49.5052 8.04746C50.0199 8.04746 50.4631 8.11838 50.8348 8.26023C51.2208 8.40207 51.5211 8.60065 51.7641 8.85597C52.0072 9.0971 52.193 9.39498 52.3074 9.7354C52.4218 10.0758 52.479 10.4446 52.479 10.8276V13.9198C52.479 14.1609 52.4933 14.4163 52.5076 14.6716C52.5219 14.9269 52.5505 15.1538 52.5933 15.3241H51.3066C51.2208 14.9836 51.1923 14.6432 51.1923 14.317H51.1494C50.892 14.6999 50.5489 14.9836 50.1629 15.1964C49.7769 15.4092 49.2908 15.5085 48.7475 15.5085C48.4616 15.5085 48.1756 15.4801 47.8754 15.395C47.5609 15.3241 47.2892 15.1964 47.0462 15.0262C46.8031 14.856 46.5887 14.6432 46.4171 14.3595C46.2456 14.0758 46.1741 13.7354 46.1741 13.3241C46.1741 12.785 46.317 12.3595 46.6173 12.0333C46.9175 11.7212 47.2892 11.4801 47.761 11.3099C48.2328 11.1397 48.7761 11.0404 49.3623 10.9978C49.9627 10.9553 50.5489 10.9269 51.1494 10.9269L51.1208 10.7283ZM50.7776 11.9482C50.4202 11.9482 50.0628 11.9624 49.6911 11.9907C49.3051 12.0191 48.962 12.09 48.676 12.1609C48.3615 12.2602 48.1184 12.3879 47.9183 12.5581C47.7181 12.7283 47.6181 12.9836 47.6181 13.2815C47.6181 13.4943 47.6609 13.6645 47.7467 13.8063C47.8325 13.9482 47.9469 14.0616 48.0898 14.1468C48.2328 14.246 48.3901 14.3028 48.5473 14.3311C48.7046 14.3595 48.8905 14.3737 49.0763 14.3737C49.7483 14.3737 50.2487 14.1751 50.6061 13.778C50.9635 13.395 51.1351 12.8843 51.1351 12.2886V11.9198H50.7776V11.9482ZM57.1683 5.67866C57.1683 5.93398 57.0682 6.14675 56.8967 6.33115C56.7108 6.50136 56.4964 6.58647 56.2247 6.58647C55.9531 6.58647 55.7529 6.50136 55.5671 6.33115C55.3812 6.16094 55.2954 5.94817 55.2954 5.69285C55.2954 5.43753 55.3955 5.22476 55.5671 5.04037C55.7386 4.85597 55.9674 4.78505 56.2247 4.78505C56.4821 4.78505 56.7108 4.87015 56.8967 5.04037C57.0682 5.1964 57.1683 5.42335 57.1683 5.67866ZM56.9396 15.3241H55.5242V8.23186H56.9396V15.3241ZM61.6432 15.3241H60.1421V4.74249H63.559C64.0737 4.74249 64.5598 4.78505 65.0173 4.89852C65.4748 4.99781 65.8894 5.16803 66.2325 5.40916C66.5756 5.63611 66.8473 5.93398 67.0474 6.31696C67.2476 6.69994 67.3476 7.13966 67.3476 7.67867C67.3476 8.45881 67.1046 9.08292 66.6185 9.56519C66.1324 10.0475 65.5177 10.3453 64.7599 10.473L67.7337 15.3382H65.9323L63.2159 10.629H61.6146V15.3382L61.6432 15.3241ZM61.6432 9.36661H63.3588C63.7163 9.36661 64.0308 9.33824 64.3453 9.26732C64.6456 9.21058 64.9172 9.11129 65.1459 8.96945C65.3747 8.84179 65.5463 8.65739 65.6749 8.44462C65.8036 8.23186 65.8751 7.96235 65.8751 7.6503C65.8751 7.33824 65.8036 7.05455 65.6749 6.85597C65.5463 6.64321 65.3604 6.47299 65.1459 6.33115C64.9315 6.20349 64.6741 6.1042 64.3882 6.06165C64.088 6.00491 63.7877 5.97654 63.4732 5.97654H61.6432V9.36661ZM71.651 5.67866C71.651 5.93398 71.5509 6.14675 71.3794 6.33115C71.1935 6.50136 70.979 6.58647 70.7074 6.58647C70.4501 6.58647 70.2356 6.50136 70.0498 6.33115C69.8639 6.16094 69.7781 5.94817 69.7781 5.69285C69.7781 5.43753 69.8782 5.22476 70.0498 5.04037C70.2213 4.85597 70.4501 4.78505 70.7074 4.78505C70.9647 4.78505 71.1792 4.87015 71.3794 5.04037C71.5509 5.1964 71.651 5.42335 71.651 5.67866ZM71.4222 15.3241H70.0069V8.23186H71.4222V15.3241ZM75.1251 16.5297C75.4396 16.8843 75.8257 17.1538 76.2832 17.3666C76.7407 17.5794 77.2267 17.6787 77.7128 17.6787C78.1846 17.6787 78.585 17.6077 78.8995 17.4801C79.214 17.3524 79.4856 17.168 79.6715 16.9269C79.8717 16.6858 80.0003 16.4163 80.1004 16.1042C80.1862 15.7921 80.2291 15.4375 80.2291 15.0687V14.1609H80.2005C79.9431 14.5581 79.5857 14.8702 79.1282 15.0687C78.6707 15.2815 78.1846 15.3808 77.6843 15.3808C77.141 15.3808 76.6549 15.2815 76.1974 15.0971C75.7399 14.9127 75.3682 14.6432 75.0536 14.317C74.7391 13.9907 74.4961 13.5936 74.3245 13.168C74.1529 12.7141 74.0672 12.246 74.0672 11.7496C74.0672 11.239 74.1529 10.7567 74.3245 10.317C74.4961 9.86306 74.7391 9.48008 75.0536 9.13966C75.3682 8.81342 75.7399 8.54392 76.1831 8.34533C76.6263 8.14675 77.1267 8.04746 77.6557 8.04746C78.1703 8.04746 78.6564 8.14675 79.1282 8.3737C79.5857 8.60065 79.9574 8.92689 80.2291 9.38079H80.2577V8.24604H81.6302V14.9694C81.6302 15.4943 81.5587 15.9765 81.43 16.4588C81.3013 16.9411 81.0726 17.3524 80.7581 17.7212C80.4435 18.09 80.0289 18.3879 79.5285 18.5865C79.0281 18.8134 78.3991 18.9127 77.67 18.9127C77.0552 18.9127 76.4261 18.7992 75.7971 18.5723C75.168 18.3453 74.639 18.0333 74.1815 17.6219L75.1251 16.5297ZM75.5397 11.6928C75.5397 12.0191 75.5826 12.3453 75.697 12.629C75.7971 12.9269 75.9543 13.1964 76.1545 13.4233C76.3546 13.6503 76.612 13.8347 76.8979 13.9765C77.1982 14.1184 77.527 14.1893 77.8987 14.1893C78.2704 14.1893 78.5992 14.1326 78.8995 13.9907C79.1997 13.8631 79.4571 13.6787 79.6715 13.4659C79.886 13.2389 80.0575 12.9836 80.1576 12.6716C80.272 12.3595 80.3292 12.0333 80.3292 11.6928C80.3292 11.3524 80.272 11.0262 80.1576 10.7425C80.0432 10.4446 79.8717 10.1751 79.6572 9.94817C79.4428 9.72122 79.1854 9.53682 78.8852 9.40916C78.5849 9.2815 78.2561 9.21058 77.8987 9.21058C77.527 9.21058 77.1982 9.2815 76.8979 9.40916C76.5977 9.53682 76.3546 9.72122 76.1545 9.94817C75.9543 10.1751 75.7828 10.4304 75.697 10.7425C75.5969 11.0404 75.5397 11.3666 75.5397 11.6928ZM85.862 9.30987C86.0336 8.95526 86.3195 8.65739 86.7341 8.41626C87.1487 8.17512 87.6062 8.03328 88.1209 8.03328C88.5784 8.03328 88.9787 8.11838 89.3076 8.27441C89.6364 8.43044 89.908 8.64321 90.1368 8.89852C90.3655 9.15384 90.5228 9.4659 90.6229 9.80632C90.7229 10.1609 90.7801 10.5297 90.7801 10.9269V15.3241H89.3647V11.395C89.3647 11.0971 89.3361 10.8276 89.2933 10.5723C89.2504 10.317 89.1646 10.0758 89.0502 9.87725C88.9358 9.67867 88.7643 9.50845 88.5641 9.39498C88.364 9.2815 88.0923 9.22476 87.7635 9.22476C87.2059 9.22476 86.7484 9.43753 86.3767 9.86306C86.0193 10.2886 85.8334 10.856 85.8334 11.5652V15.3241H84.418V3.99072H85.8334V9.2815H85.862V9.30987ZM97.1422 9.39498H95.2407V13.0829C95.2407 13.5085 95.3265 13.8063 95.4838 14.0049C95.6553 14.1893 95.8984 14.2744 96.2558 14.2744C96.3845 14.2744 96.5274 14.2602 96.6847 14.246C96.842 14.2177 96.9706 14.1751 97.085 14.1326L97.1279 15.2815C96.9564 15.3382 96.7705 15.3808 96.556 15.4233C96.3559 15.4517 96.1414 15.4659 95.9127 15.4659C95.2407 15.4659 94.726 15.2815 94.3686 14.9127C94.0112 14.5439 93.8397 13.9907 93.8397 13.2531V9.40916H92.4672V8.24604H93.8397V6.20349H95.2407V8.24604H97.1422V9.39498Z" fill="#181818"/>
<mask id="mask0_4_14627" style="mask-type:luminance" maskUnits="userSpaceOnUse" x="46" y="3" width="52" height="16">
<path d="M51.1208 10.7283C51.1208 10.2035 50.9492 9.80633 50.6347 9.55101C50.3201 9.29569 49.8912 9.16803 49.348 9.16803C48.9477 9.16803 48.5616 9.25314 48.2042 9.40916C47.8468 9.56519 47.5466 9.76377 47.3035 10.0049L46.5601 9.11129C46.9175 8.78505 47.3464 8.51555 47.8611 8.33115C48.3758 8.14675 48.9191 8.04746 49.5052 8.04746C50.0199 8.04746 50.4631 8.11838 50.8348 8.26023C51.2208 8.40207 51.5211 8.60065 51.7641 8.85597C52.0072 9.0971 52.193 9.39498 52.3074 9.7354C52.4218 10.0758 52.479 10.4446 52.479 10.8276V13.9198C52.479 14.1609 52.4933 14.4163 52.5076 14.6716C52.5219 14.9269 52.5505 15.1538 52.5933 15.3241H51.3066C51.2208 14.9836 51.1923 14.6432 51.1923 14.317H51.1494C50.892 14.6999 50.5489 14.9836 50.1629 15.1964C49.7769 15.4092 49.2908 15.5085 48.7475 15.5085C48.4616 15.5085 48.1756 15.4801 47.8754 15.395C47.5609 15.3241 47.2892 15.1964 47.0462 15.0262C46.8031 14.856 46.5887 14.6432 46.4171 14.3595C46.2456 14.0758 46.1741 13.7354 46.1741 13.3241C46.1741 12.785 46.317 12.3595 46.6173 12.0333C46.9175 11.7212 47.2892 11.4801 47.761 11.3099C48.2328 11.1397 48.7761 11.0404 49.3623 10.9978C49.9627 10.9553 50.5489 10.9269 51.1494 10.9269L51.1208 10.7283ZM50.7776 11.9482C50.4202 11.9482 50.0628 11.9624 49.6911 11.9907C49.3051 12.0191 48.962 12.09 48.676 12.1609C48.3615 12.2602 48.1184 12.3879 47.9183 12.5581C47.7181 12.7283 47.6181 12.9836 47.6181 13.2815C47.6181 13.4943 47.6609 13.6645 47.7467 13.8063C47.8325 13.9482 47.9469 14.0616 48.0898 14.1468C48.2328 14.246 48.3901 14.3028 48.5473 14.3311C48.7046 14.3595 48.8905 14.3737 49.0763 14.3737C49.7483 14.3737 50.2487 14.1751 50.6061 13.778C50.9635 13.395 51.1351 12.8843 51.1351 12.2886V11.9198H50.7776V11.9482ZM57.1683 5.67866C57.1683 5.93398 57.0682 6.14675 56.8967 6.33115C56.7108 6.50136 56.4964 6.58647 56.2247 6.58647C55.9531 6.58647 55.7529 6.50136 55.5671 6.33115C55.3812 6.16094 55.2954 5.94817 55.2954 5.69285C55.2954 5.43753 55.3955 5.22476 55.5671 5.04037C55.7386 4.85597 55.9674 4.78505 56.2247 4.78505C56.4821 4.78505 56.7108 4.87015 56.8967 5.04037C57.0682 5.1964 57.1683 5.42335 57.1683 5.67866ZM56.9396 15.3241H55.5242V8.23186H56.9396V15.3241ZM61.6432 15.3241H60.1421V4.74249H63.559C64.0737 4.74249 64.5598 4.78505 65.0173 4.89852C65.4748 4.99781 65.8894 5.16803 66.2325 5.40916C66.5756 5.63611 66.8473 5.93398 67.0474 6.31696C67.2476 6.69994 67.3476 7.13966 67.3476 7.67867C67.3476 8.45881 67.1046 9.08292 66.6185 9.56519C66.1324 10.0475 65.5177 10.3453 64.7599 10.473L67.7337 15.3382H65.9323L63.2159 10.629H61.6146V15.3382L61.6432 15.3241ZM61.6432 9.36661H63.3588C63.7163 9.36661 64.0308 9.33824 64.3453 9.26732C64.6456 9.21058 64.9172 9.11129 65.1459 8.96945C65.3747 8.84179 65.5463 8.65739 65.6749 8.44462C65.8036 8.23186 65.8751 7.96235 65.8751 7.6503C65.8751 7.33824 65.8036 7.05455 65.6749 6.85597C65.5463 6.64321 65.3604 6.47299 65.1459 6.33115C64.9315 6.20349 64.6741 6.1042 64.3882 6.06165C64.088 6.00491 63.7877 5.97654 63.4732 5.97654H61.6432V9.36661ZM71.651 5.67866C71.651 5.93398 71.5509 6.14675 71.3794 6.33115C71.1935 6.50136 70.979 6.58647 70.7074 6.58647C70.4501 6.58647 70.2356 6.50136 70.0498 6.33115C69.8639 6.16094 69.7781 5.94817 69.7781 5.69285C69.7781 5.43753 69.8782 5.22476 70.0498 5.04037C70.2213 4.85597 70.4501 4.78505 70.7074 4.78505C70.9647 4.78505 71.1792 4.87015 71.3794 5.04037C71.5509 5.1964 71.651 5.42335 71.651 5.67866ZM71.4222 15.3241H70.0069V8.23186H71.4222V15.3241ZM75.1251 16.5297C75.4396 16.8843 75.8257 17.1538 76.2832 17.3666C76.7407 17.5794 77.2267 17.6787 77.7128 17.6787C78.1846 17.6787 78.585 17.6077 78.8995 17.4801C79.214 17.3524 79.4856 17.168 79.6715 16.9269C79.8717 16.6858 80.0003 16.4163 80.1004 16.1042C80.1862 15.7921 80.2291 15.4375 80.2291 15.0687V14.1609H80.2005C79.9431 14.5581 79.5857 14.8702 79.1282 15.0687C78.6707 15.2815 78.1846 15.3808 77.6843 15.3808C77.141 15.3808 76.6549 15.2815 76.1974 15.0971C75.7399 14.9127 75.3682 14.6432 75.0536 14.317C74.7391 13.9907 74.4961 13.5936 74.3245 13.168C74.1529 12.7141 74.0672 12.246 74.0672 11.7496C74.0672 11.239 74.1529 10.7567 74.3245 10.317C74.4961 9.86306 74.7391 9.48008 75.0536 9.13966C75.3682 8.81342 75.7399 8.54392 76.1831 8.34533C76.6263 8.14675 77.1267 8.04746 77.6557 8.04746C78.1703 8.04746 78.6564 8.14675 79.1282 8.3737C79.5857 8.60065 79.9574 8.92689 80.2291 9.38079H80.2577V8.24604H81.6302V14.9694C81.6302 15.4943 81.5587 15.9765 81.43 16.4588C81.3013 16.9411 81.0726 17.3524 80.7581 17.7212C80.4435 18.09 80.0289 18.3879 79.5285 18.5865C79.0281 18.8134 78.3991 18.9127 77.67 18.9127C77.0552 18.9127 76.4261 18.7992 75.7971 18.5723C75.168 18.3453 74.639 18.0333 74.1815 17.6219L75.1251 16.5297ZM75.5397 11.6928C75.5397 12.0191 75.5826 12.3453 75.697 12.629C75.7971 12.9269 75.9543 13.1964 76.1545 13.4233C76.3546 13.6503 76.612 13.8347 76.8979 13.9765C77.1982 14.1184 77.527 14.1893 77.8987 14.1893C78.2704 14.1893 78.5992 14.1326 78.8995 13.9907C79.1997 13.8631 79.4571 13.6787 79.6715 13.4659C79.886 13.2389 80.0575 12.9836 80.1576 12.6716C80.272 12.3595 80.3292 12.0333 80.3292 11.6928C80.3292 11.3524 80.272 11.0262 80.1576 10.7425C80.0432 10.4446 79.8717 10.1751 79.6572 9.94817C79.4428 9.72122 79.1854 9.53682 78.8852 9.40916C78.5849 9.2815 78.2561 9.21058 77.8987 9.21058C77.527 9.21058 77.1982 9.2815 76.8979 9.40916C76.5977 9.53682 76.3546 9.72122 76.1545 9.94817C75.9543 10.1751 75.7828 10.4304 75.697 10.7425C75.5969 11.0404 75.5397 11.3666 75.5397 11.6928ZM85.862 9.30987C86.0336 8.95526 86.3195 8.65739 86.7341 8.41626C87.1487 8.17512 87.6062 8.03328 88.1209 8.03328C88.5784 8.03328 88.9787 8.11838 89.3076 8.27441C89.6364 8.43044 89.908 8.64321 90.1368 8.89852C90.3655 9.15384 90.5228 9.4659 90.6229 9.80632C90.7229 10.1609 90.7801 10.5297 90.7801 10.9269V15.3241H89.3647V11.395C89.3647 11.0971 89.3361 10.8276 89.2933 10.5723C89.2504 10.317 89.1646 10.0758 89.0502 9.87725C88.9358 9.67867 88.7643 9.50845 88.5641 9.39498C88.364 9.2815 88.0923 9.22476 87.7635 9.22476C87.2059 9.22476 86.7484 9.43753 86.3767 9.86306C86.0193 10.2886 85.8334 10.856 85.8334 11.5652V15.3241H84.418V3.99072H85.8334V9.2815H85.862V9.30987ZM97.1422 9.39498H95.2407V13.0829C95.2407 13.5085 95.3265 13.8063 95.4838 14.0049C95.6553 14.1893 95.8984 14.2744 96.2558 14.2744C96.3845 14.2744 96.5274 14.2602 96.6847 14.246C96.842 14.2177 96.9706 14.1751 97.085 14.1326L97.1279 15.2815C96.9564 15.3382 96.7705 15.3808 96.556 15.4233C96.3559 15.4517 96.1414 15.4659 95.9127 15.4659C95.2407 15.4659 94.726 15.2815 94.3686 14.9127C94.0112 14.5439 93.8397 13.9907 93.8397 13.2531V9.40916H92.4672V8.24604H93.8397V6.20349H95.2407V8.24604H97.1422V9.39498Z" fill="white"/>
</mask>
<g mask="url(#mask0_4_14627)">
<path d="M97.1851 3.99072H46.1455V18.9269H97.1851V3.99072Z" fill="#181818"/>
<path d="M97.1851 3.99072H46.1455V18.9269H97.1851V3.99072Z" fill="#181818"/>
<mask id="mask1_4_14627" style="mask-type:luminance" maskUnits="userSpaceOnUse" x="46" y="3" width="52" height="16">
<path d="M97.1851 3.99072H46.1455V18.9269H97.1851V3.99072Z" fill="white"/>
</mask>
<g mask="url(#mask1_4_14627)">
<path d="M46.4743 3.99072H46.1455V18.9269H46.4743V3.99072Z" fill="#181818"/>
</g>
<path d="M97.1851 3.99072H46.1455V18.9269H97.1851V3.99072Z" fill="#181818"/>
<mask id="mask2_4_14627" style="mask-type:luminance" maskUnits="userSpaceOnUse" x="46" y="3" width="52" height="16">
<path d="M97.1851 3.99072H46.1455V18.9269H97.1851V3.99072Z" fill="white"/>
</mask>
<g mask="url(#mask2_4_14627)">
<path d="M46.8174 3.99072H46.4885V18.9269H46.8174V3.99072Z" fill="#181818"/>
</g>
<path d="M97.1851 3.99072H46.1455V18.9269H97.1851V3.99072Z" fill="#181818"/>
<mask id="mask3_4_14627" style="mask-type:luminance" maskUnits="userSpaceOnUse" x="46" y="3" width="52" height="16">
<path d="M97.1851 3.99072H46.1455V18.9269H97.1851V3.99072Z" fill="white"/>
</mask>
<g mask="url(#mask3_4_14627)">
<path d="M47.1321 3.99072H46.8032V18.9269H47.1321V3.99072Z" fill="#181818"/>
</g>
<path d="M97.1851 3.99072H46.1455V18.9269H97.1851V3.99072Z" fill="#181818"/>
<mask id="mask4_4_14627" style="mask-type:luminance" maskUnits="userSpaceOnUse" x="46" y="3" width="52" height="16">
<path d="M97.1851 3.99072H46.1455V18.9269H97.1851V3.99072Z" fill="white"/>
</mask>
<g mask="url(#mask4_4_14627)">
<path d="M47.4609 3.99072H47.1321V18.9269H47.4609V3.99072Z" fill="#181818"/>
</g>
<path d="M97.1851 3.99072H46.1455V18.9269H97.1851V3.99072Z" fill="#181818"/>
<mask id="mask5_4_14627" style="mask-type:luminance" maskUnits="userSpaceOnUse" x="46" y="3" width="52" height="16">
<path d="M97.1851 3.99072H46.1455V18.9269H97.1851V3.99072Z" fill="white"/>
</mask>
<g mask="url(#mask5_4_14627)">
<path d="M47.7898 3.99072H47.4609V18.9269H47.7898V3.99072Z" fill="#181818"/>
</g>
<path d="M97.1851 3.99072H46.1455V18.9269H97.1851V3.99072Z" fill="#181818"/>
<mask id="mask6_4_14627" style="mask-type:luminance" maskUnits="userSpaceOnUse" x="46" y="3" width="52" height="16">
<path d="M97.1851 3.99072H46.1455V18.9269H97.1851V3.99072Z" fill="white"/>
</mask>
<g mask="url(#mask6_4_14627)">
<path d="M48.1328 3.99072H47.804V18.9269H48.1328V3.99072Z" fill="#181818"/>
</g>
<path d="M97.1851 3.99072H46.1455V18.9269H97.1851V3.99072Z" fill="#181818"/>
<mask id="mask7_4_14627" style="mask-type:luminance" maskUnits="userSpaceOnUse" x="46" y="3" width="52" height="16">
<path d="M97.1851 3.99072H46.1455V18.9269H97.1851V3.99072Z" fill="white"/>
</mask>
<g mask="url(#mask7_4_14627)">
<path d="M48.4616 3.99072H48.1328V18.9269H48.4616V3.99072Z" fill="#181818"/>
</g>
<path d="M97.1851 3.99072H46.1455V18.9269H97.1851V3.99072Z" fill="#181818"/>
<mask id="mask8_4_14627" style="mask-type:luminance" maskUnits="userSpaceOnUse" x="46" y="3" width="52" height="16">
<path d="M97.1851 3.99072H46.1455V18.9269H97.1851V3.99072Z" fill="white"/>
</mask>
<g mask="url(#mask8_4_14627)">
<path d="M48.7905 3.99072H48.4617V18.9269H48.7905V3.99072Z" fill="#181818"/>
</g>
<path d="M97.1851 3.99072H46.1455V18.9269H97.1851V3.99072Z" fill="#181818"/>
<mask id="mask9_4_14627" style="mask-type:luminance" maskUnits="userSpaceOnUse" x="46" y="3" width="52" height="16">
<path d="M97.1851 3.99072H46.1455V18.9269H97.1851V3.99072Z" fill="white"/>
</mask>
<g mask="url(#mask9_4_14627)">
<path d="M49.1049 3.99072H48.7761V18.9269H49.1049V3.99072Z" fill="#181818"/>
</g>
<path d="M97.1851 3.99072H46.1455V18.9269H97.1851V3.99072Z" fill="#181818"/>
<mask id="mask10_4_14627" style="mask-type:luminance" maskUnits="userSpaceOnUse" x="46" y="3" width="52" height="16">
<path d="M97.1851 3.99072H46.1455V18.9269H97.1851V3.99072Z" fill="white"/>
</mask>
<g mask="url(#mask10_4_14627)">
<path d="M49.4338 3.99072H49.105V18.9269H49.4338V3.99072Z" fill="#181818"/>
</g>
<path d="M97.1851 3.99072H46.1455V18.9269H97.1851V3.99072Z" fill="#181818"/>
<mask id="mask11_4_14627" style="mask-type:luminance" maskUnits="userSpaceOnUse" x="46" y="3" width="52" height="16">
<path d="M97.1851 3.99072H46.1455V18.9269H97.1851V3.99072Z" fill="white"/>
</mask>
<g mask="url(#mask11_4_14627)">
<path d="M49.7768 3.99072H49.448V18.9269H49.7768V3.99072Z" fill="#181818"/>
</g>
<path d="M97.1851 3.99072H46.1455V18.9269H97.1851V3.99072Z" fill="#181818"/>
<mask id="mask12_4_14627" style="mask-type:luminance" maskUnits="userSpaceOnUse" x="46" y="3" width="52" height="16">
<path d="M97.1851 3.99072H46.1455V18.9269H97.1851V3.99072Z" fill="white"/>
</mask>
<g mask="url(#mask12_4_14627)">
<path d="M50.1057 3.99072H49.7769V18.9269H50.1057V3.99072Z" fill="#181818"/>
</g>
<path d="M97.1851 3.99072H46.1455V18.9269H97.1851V3.99072Z" fill="#181818"/>
<mask id="mask13_4_14627" style="mask-type:luminance" maskUnits="userSpaceOnUse" x="46" y="3" width="52" height="16">
<path d="M97.1851 3.99072H46.1455V18.9269H97.1851V3.99072Z" fill="white"/>
</mask>
<g mask="url(#mask13_4_14627)">
<path d="M50.4345 3.99072H50.1057V18.9269H50.4345V3.99072Z" fill="#181818"/>
</g>
<path d="M97.1851 3.99072H46.1455V18.9269H97.1851V3.99072Z" fill="#181818"/>
<mask id="mask14_4_14627" style="mask-type:luminance" maskUnits="userSpaceOnUse" x="46" y="3" width="52" height="16">
<path d="M97.1851 3.99072H46.1455V18.9269H97.1851V3.99072Z" fill="white"/>
</mask>
<g mask="url(#mask14_4_14627)">
<path d="M50.749 3.99072H50.4202V18.9269H50.749V3.99072Z" fill="#181818"/>
</g>
<path d="M97.1851 3.99072H46.1455V18.9269H97.1851V3.99072Z" fill="#181818"/>
<mask id="mask15_4_14627" style="mask-type:luminance" maskUnits="userSpaceOnUse" x="46" y="3" width="52" height="16">
<path d="M97.1851 3.99072H46.1455V18.9269H97.1851V3.99072Z" fill="white"/>
</mask>
<g mask="url(#mask15_4_14627)">
<path d="M51.0923 3.99072H50.7634V18.9269H51.0923V3.99072Z" fill="#181818"/>
</g>
<path d="M97.1851 3.99072H46.1455V18.9269H97.1851V3.99072Z" fill="#181818"/>
<mask id="mask16_4_14627" style="mask-type:luminance" maskUnits="userSpaceOnUse" x="46" y="3" width="52" height="16">
<path d="M97.1851 3.99072H46.1455V18.9269H97.1851V3.99072Z" fill="white"/>
</mask>
<g mask="url(#mask16_4_14627)">
<path d="M51.4211 3.99072H51.0923V18.9269H51.4211V3.99072Z" fill="#181818"/>
</g>
<path d="M97.1851 3.99072H46.1455V18.9269H97.1851V3.99072Z" fill="#181818"/>
<mask id="mask17_4_14627" style="mask-type:luminance" maskUnits="userSpaceOnUse" x="46" y="3" width="52" height="16">
<path d="M97.1851 3.99072H46.1455V18.9269H97.1851V3.99072Z" fill="white"/>
</mask>
<g mask="url(#mask17_4_14627)">
<path d="M51.75 3.99072H51.4211V18.9269H51.75V3.99072Z" fill="#181818"/>
</g>
<path d="M97.1851 3.99072H46.1455V18.9269H97.1851V3.99072Z" fill="#181818"/>
<mask id="mask18_4_14627" style="mask-type:luminance" maskUnits="userSpaceOnUse" x="46" y="3" width="52" height="16">
<path d="M97.1851 3.99072H46.1455V18.9269H97.1851V3.99072Z" fill="white"/>
</mask>
<g mask="url(#mask18_4_14627)">
<path d="M52.0786 3.99072H51.7498V18.9269H52.0786V3.99072Z" fill="#181818"/>
</g>
<path d="M97.1851 3.99072H46.1455V18.9269H97.1851V3.99072Z" fill="#181818"/>
<mask id="mask19_4_14627" style="mask-type:luminance" maskUnits="userSpaceOnUse" x="46" y="3" width="52" height="16">
<path d="M97.1851 3.99072H46.1455V18.9269H97.1851V3.99072Z" fill="white"/>
</mask>
<g mask="url(#mask19_4_14627)">
<path d="M52.4074 3.99072H52.0786V18.9269H52.4074V3.99072Z" fill="#181818"/>
</g>
<path d="M97.1851 3.99072H46.1455V18.9269H97.1851V3.99072Z" fill="#181818"/>
<mask id="mask20_4_14627" style="mask-type:luminance" maskUnits="userSpaceOnUse" x="46" y="3" width="52" height="16">
<path d="M97.1851 3.99072H46.1455V18.9269H97.1851V3.99072Z" fill="white"/>
</mask>
<g mask="url(#mask20_4_14627)">
<path d="M52.7363 3.99072H52.4075V18.9269H52.7363V3.99072Z" fill="#181818"/>
</g>
<path d="M97.1851 3.99072H46.1455V18.9269H97.1851V3.99072Z" fill="#181818"/>
<mask id="mask21_4_14627" style="mask-type:luminance" maskUnits="userSpaceOnUse" x="46" y="3" width="52" height="16">
<path d="M97.1851 3.99072H46.1455V18.9269H97.1851V3.99072Z" fill="white"/>
</mask>
<g mask="url(#mask21_4_14627)">
<path d="M53.0652 3.99072H52.7363V18.9269H53.0652V3.99072Z" fill="#181818"/>
</g>
<path d="M97.1851 3.99072H46.1455V18.9269H97.1851V3.99072Z" fill="#181818"/>
<mask id="mask22_4_14627" style="mask-type:luminance" maskUnits="userSpaceOnUse" x="46" y="3" width="52" height="16">
<path d="M97.1851 3.99072H46.1455V18.9269H97.1851V3.99072Z" fill="white"/>
</mask>
<g mask="url(#mask22_4_14627)">
<path d="M53.394 3.99072H53.0652V18.9269H53.394V3.99072Z" fill="#181818"/>
</g>
<path d="M97.1851 3.99072H46.1455V18.9269H97.1851V3.99072Z" fill="#181818"/>
<mask id="mask23_4_14627" style="mask-type:luminance" maskUnits="userSpaceOnUse" x="46" y="3" width="52" height="16">
<path d="M97.1851 3.99072H46.1455V18.9269H97.1851V3.99072Z" fill="white"/>
</mask>
<g mask="url(#mask23_4_14627)">
<path d="M53.7229 3.99072H53.394V18.9269H53.7229V3.99072Z" fill="#181818"/>
</g>
<path d="M97.1851 3.99072H46.1455V18.9269H97.1851V3.99072Z" fill="#181818"/>
<mask id="mask24_4_14627" style="mask-type:luminance" maskUnits="userSpaceOnUse" x="46" y="3" width="52" height="16">
<path d="M97.1851 3.99072H46.1455V18.9269H97.1851V3.99072Z" fill="white"/>
</mask>
<g mask="url(#mask24_4_14627)">
<path d="M54.0517 3.99072H53.7229V18.9269H54.0517V3.99072Z" fill="#181818"/>
</g>
<path d="M97.1851 3.99072H46.1455V18.9269H97.1851V3.99072Z" fill="#181818"/>
<mask id="mask25_4_14627" style="mask-type:luminance" maskUnits="userSpaceOnUse" x="46" y="3" width="52" height="16">
<path d="M97.1851 3.99072H46.1455V18.9269H97.1851V3.99072Z" fill="white"/>
</mask>
<g mask="url(#mask25_4_14627)">
<path d="M54.3806 3.99072H54.0518V18.9269H54.3806V3.99072Z" fill="#181818"/>
</g>
<path d="M97.1851 3.99072H46.1455V18.9269H97.1851V3.99072Z" fill="#181818"/>
<mask id="mask26_4_14627" style="mask-type:luminance" maskUnits="userSpaceOnUse" x="46" y="3" width="52" height="16">
<path d="M97.1851 3.99072H46.1455V18.9269H97.1851V3.99072Z" fill="white"/>
</mask>
<g mask="url(#mask26_4_14627)">
<path d="M54.7092 3.99072H54.3804V18.9269H54.7092V3.99072Z" fill="#181818"/>
</g>
<path d="M97.1851 3.99072H46.1455V18.9269H97.1851V3.99072Z" fill="#181818"/>
<mask id="mask27_4_14627" style="mask-type:luminance" maskUnits="userSpaceOnUse" x="46" y="3" width="52" height="16">
<path d="M97.1851 3.99072H46.1455V18.9269H97.1851V3.99072Z" fill="white"/>
</mask>
<g mask="url(#mask27_4_14627)">
<path d="M55.0381 3.99072H54.7092V18.9269H55.0381V3.99072Z" fill="#181818"/>
</g>
<path d="M97.1851 3.99072H46.1455V18.9269H97.1851V3.99072Z" fill="#181818"/>
<mask id="mask28_4_14627" style="mask-type:luminance" maskUnits="userSpaceOnUse" x="46" y="3" width="52" height="16">
<path d="M97.1851 3.99072H46.1455V18.9269H97.1851V3.99072Z" fill="white"/>
</mask>
<g mask="url(#mask28_4_14627)">
<path d="M55.3669 3.99072H55.0381V18.9269H55.3669V3.99072Z" fill="#181818"/>
</g>
<path d="M97.1851 3.99072H46.1455V18.9269H97.1851V3.99072Z" fill="#181818"/>
<mask id="mask29_4_14627" style="mask-type:luminance" maskUnits="userSpaceOnUse" x="46" y="3" width="52" height="16">
<path d="M97.1851 3.99072H46.1455V18.9269H97.1851V3.99072Z" fill="white"/>
</mask>
<g mask="url(#mask29_4_14627)">
<path d="M55.6958 3.99072H55.3669V18.9269H55.6958V3.99072Z" fill="#181818"/>
</g>
<path d="M97.1851 3.99072H46.1455V18.9269H97.1851V3.99072Z" fill="#181818"/>
<mask id="mask30_4_14627" style="mask-type:luminance" maskUnits="userSpaceOnUse" x="46" y="3" width="52" height="16">
<path d="M97.1851 3.99072H46.1455V18.9269H97.1851V3.99072Z" fill="white"/>
</mask>
<g mask="url(#mask30_4_14627)">
<path d="M56.0388 3.99072H55.71V18.9269H56.0388V3.99072Z" fill="#181818"/>
</g>
<path d="M97.1851 3.99072H46.1455V18.9269H97.1851V3.99072Z" fill="#181818"/>
<mask id="mask31_4_14627" style="mask-type:luminance" maskUnits="userSpaceOnUse" x="46" y="3" width="52" height="16">
<path d="M97.1851 3.99072H46.1455V18.9269H97.1851V3.99072Z" fill="white"/>
</mask>
<g mask="url(#mask31_4_14627)">
<path d="M56.3535 3.99072H56.0247V18.9269H56.3535V3.99072Z" fill="#181818"/>
</g>
<path d="M97.1851 3.99072H46.1455V18.9269H97.1851V3.99072Z" fill="#181818"/>
<mask id="mask32_4_14627" style="mask-type:luminance" maskUnits="userSpaceOnUse" x="46" y="3" width="52" height="16">
<path d="M97.1851 3.99072H46.1455V18.9269H97.1851V3.99072Z" fill="white"/>
</mask>
<g mask="url(#mask32_4_14627)">
<path d="M56.6823 3.99072H56.3535V18.9269H56.6823V3.99072Z" fill="#181818"/>
</g>
<path d="M97.1851 3.99072H46.1455V18.9269H97.1851V3.99072Z" fill="#181818"/>
<mask id="mask33_4_14627" style="mask-type:luminance" maskUnits="userSpaceOnUse" x="46" y="3" width="52" height="16">
<path d="M97.1851 3.99072H46.1455V18.9269H97.1851V3.99072Z" fill="white"/>
</mask>
<g mask="url(#mask33_4_14627)">
<path d="M57.0112 3.99072H56.6824V18.9269H57.0112V3.99072Z" fill="#181818"/>
</g>
<path d="M97.1851 3.99072H46.1455V18.9269H97.1851V3.99072Z" fill="#181818"/>
<mask id="mask34_4_14627" style="mask-type:luminance" maskUnits="userSpaceOnUse" x="46" y="3" width="52" height="16">
<path d="M97.1851 3.99072H46.1455V18.9269H97.1851V3.99072Z" fill="white"/>
</mask>
<g mask="url(#mask34_4_14627)">
<path d="M57.3542 3.99072H57.0254V18.9269H57.3542V3.99072Z" fill="#181818"/>
</g>
<path d="M97.1851 3.99072H46.1455V18.9269H97.1851V3.99072Z" fill="#181818"/>
<mask id="mask35_4_14627" style="mask-type:luminance" maskUnits="userSpaceOnUse" x="46" y="3" width="52" height="16">
<path d="M97.1851 3.99072H46.1455V18.9269H97.1851V3.99072Z" fill="white"/>
</mask>
<g mask="url(#mask35_4_14627)">
<path d="M57.6831 3.99072H57.3542V18.9269H57.6831V3.99072Z" fill="#181818"/>
</g>
<path d="M97.1851 3.99072H46.1455V18.9269H97.1851V3.99072Z" fill="#181818"/>
<mask id="mask36_4_14627" style="mask-type:luminance" maskUnits="userSpaceOnUse" x="46" y="3" width="52" height="16">
<path d="M97.1851 3.99072H46.1455V18.9269H97.1851V3.99072Z" fill="white"/>
</mask>
<g mask="url(#mask36_4_14627)">
<path d="M57.9975 3.99072H57.6687V18.9269H57.9975V3.99072Z" fill="#181818"/>
</g>
<path d="M97.1851 3.99072H46.1455V18.9269H97.1851V3.99072Z" fill="#181818"/>
<mask id="mask37_4_14627" style="mask-type:luminance" maskUnits="userSpaceOnUse" x="46" y="3" width="52" height="16">
<path d="M97.1851 3.99072H46.1455V18.9269H97.1851V3.99072Z" fill="white"/>
</mask>
<g mask="url(#mask37_4_14627)">
<path d="M58.3264 3.99072H57.9976V18.9269H58.3264V3.99072Z" fill="#181818"/>
</g>
<path d="M97.1851 3.99072H46.1455V18.9269H97.1851V3.99072Z" fill="#181818"/>
<mask id="mask38_4_14627" style="mask-type:luminance" maskUnits="userSpaceOnUse" x="46" y="3" width="52" height="16">
<path d="M97.1851 3.99072H46.1455V18.9269H97.1851V3.99072Z" fill="white"/>
</mask>
<g mask="url(#mask38_4_14627)">
<path d="M58.6552 3.99072H58.3264V18.9269H58.6552V3.99072Z" fill="#181818"/>
</g>
<path d="M97.1851 3.99072H46.1455V18.9269H97.1851V3.99072Z" fill="#181818"/>
<mask id="mask39_4_14627" style="mask-type:luminance" maskUnits="userSpaceOnUse" x="46" y="3" width="52" height="16">
<path d="M97.1851 3.99072H46.1455V18.9269H97.1851V3.99072Z" fill="white"/>
</mask>
<g mask="url(#mask39_4_14627)">
<path d="M58.9983 3.99072H58.6694V18.9269H58.9983V3.99072Z" fill="#181818"/>
</g>
<path d="M97.1851 3.99072H46.1455V18.9269H97.1851V3.99072Z" fill="#181818"/>
<mask id="mask40_4_14627" style="mask-type:luminance" maskUnits="userSpaceOnUse" x="46" y="3" width="52" height="16">
<path d="M97.1851 3.99072H46.1455V18.9269H97.1851V3.99072Z" fill="white"/>
</mask>
<g mask="url(#mask40_4_14627)">
<path d="M59.3271 3.99072H58.9983V18.9269H59.3271V3.99072Z" fill="#181818"/>
</g>
<path d="M97.1851 3.99072H46.1455V18.9269H97.1851V3.99072Z" fill="#181818"/>
<mask id="mask41_4_14627" style="mask-type:luminance" maskUnits="userSpaceOnUse" x="46" y="3" width="52" height="16">
<path d="M97.1851 3.99072H46.1455V18.9269H97.1851V3.99072Z" fill="white"/>
</mask>
<g mask="url(#mask41_4_14627)">
<path d="M59.656 3.99072H59.3271V18.9269H59.656V3.99072Z" fill="#181818"/>
</g>
<path d="M97.1851 3.99072H46.1455V18.9269H97.1851V3.99072Z" fill="#181818"/>
<mask id="mask42_4_14627" style="mask-type:luminance" maskUnits="userSpaceOnUse" x="46" y="3" width="52" height="16">
<path d="M97.1851 3.99072H46.1455V18.9269H97.1851V3.99072Z" fill="white"/>
</mask>
<g mask="url(#mask42_4_14627)">
<path d="M59.9704 3.99072H59.6416V18.9269H59.9704V3.99072Z" fill="#181818"/>
</g>
<path d="M97.1851 3.99072H46.1455V18.9269H97.1851V3.99072Z" fill="#181818"/>
<mask id="mask43_4_14627" style="mask-type:luminance" maskUnits="userSpaceOnUse" x="46" y="3" width="52" height="16">
<path d="M97.1851 3.99072H46.1455V18.9269H97.1851V3.99072Z" fill="white"/>
</mask>
<g mask="url(#mask43_4_14627)">
<path d="M60.3137 3.99072H59.9849V18.9269H60.3137V3.99072Z" fill="#181818"/>
</g>
<path d="M97.1851 3.99072H46.1455V18.9269H97.1851V3.99072Z" fill="#181818"/>
<mask id="mask44_4_14627" style="mask-type:luminance" maskUnits="userSpaceOnUse" x="46" y="3" width="52" height="16">
<path d="M97.1851 3.99072H46.1455V18.9269H97.1851V3.99072Z" fill="white"/>
</mask>
<g mask="url(#mask44_4_14627)">
<path d="M60.6426 3.99072H60.3137V18.9269H60.6426V3.99072Z" fill="#181818"/>
</g>
<path d="M97.1851 3.99072H46.1455V18.9269H97.1851V3.99072Z" fill="#181818"/>
<mask id="mask45_4_14627" style="mask-type:luminance" maskUnits="userSpaceOnUse" x="46" y="3" width="52" height="16">
<path d="M97.1851 3.99072H46.1455V18.9269H97.1851V3.99072Z" fill="white"/>
</mask>
<g mask="url(#mask45_4_14627)">
<path d="M60.9714 3.99072H60.6426V18.9269H60.9714V3.99072Z" fill="#181818"/>
</g>
<path d="M97.1851 3.99072H46.1455V18.9269H97.1851V3.99072Z" fill="#181818"/>
<mask id="mask46_4_14627" style="mask-type:luminance" maskUnits="userSpaceOnUse" x="46" y="3" width="52" height="16">
<path d="M97.1851 3.99072H46.1455V18.9269H97.1851V3.99072Z" fill="white"/>
</mask>
<g mask="url(#mask46_4_14627)">
<path d="M61.3 3.99072H60.9712V18.9269H61.3V3.99072Z" fill="#181818"/>
</g>
<path d="M97.1851 3.99072H46.1455V18.9269H97.1851V3.99072Z" fill="#181818"/>
<mask id="mask47_4_14627" style="mask-type:luminance" maskUnits="userSpaceOnUse" x="46" y="3" width="52" height="16">
<path d="M97.1851 3.99072H46.1455V18.9269H97.1851V3.99072Z" fill="white"/>
</mask>
<g mask="url(#mask47_4_14627)">
<path d="M61.6147 3.99072H61.2859V18.9269H61.6147V3.99072Z" fill="#181818"/>
</g>
<path d="M97.1851 3.99072H46.1455V18.9269H97.1851V3.99072Z" fill="#181818"/>
<mask id="mask48_4_14627" style="mask-type:luminance" maskUnits="userSpaceOnUse" x="46" y="3" width="52" height="16">
<path d="M97.1851 3.99072H46.1455V18.9269H97.1851V3.99072Z" fill="white"/>
</mask>
<g mask="url(#mask48_4_14627)">
<path d="M61.9577 3.99072H61.6289V18.9269H61.9577V3.99072Z" fill="#181818"/>
</g>
<path d="M97.1851 3.99072H46.1455V18.9269H97.1851V3.99072Z" fill="#181818"/>
<mask id="mask49_4_14627" style="mask-type:luminance" maskUnits="userSpaceOnUse" x="46" y="3" width="52" height="16">
<path d="M97.1851 3.99072H46.1455V18.9269H97.1851V3.99072Z" fill="white"/>
</mask>
<g mask="url(#mask49_4_14627)">
<path d="M62.2866 3.99072H61.9578V18.9269H62.2866V3.99072Z" fill="#181818"/>
</g>
<path d="M97.1851 3.99072H46.1455V18.9269H97.1851V3.99072Z" fill="#181818"/>
<mask id="mask50_4_14627" style="mask-type:luminance" maskUnits="userSpaceOnUse" x="46" y="3" width="52" height="16">
<path d="M97.1851 3.99072H46.1455V18.9269H97.1851V3.99072Z" fill="white"/>
</mask>
<g mask="url(#mask50_4_14627)">
<path d="M62.6154 3.99072H62.2866V18.9269H62.6154V3.99072Z" fill="#181818"/>
</g>
<path d="M97.1851 3.99072H46.1455V18.9269H97.1851V3.99072Z" fill="#181818"/>
<mask id="mask51_4_14627" style="mask-type:luminance" maskUnits="userSpaceOnUse" x="46" y="3" width="52" height="16">
<path d="M97.1851 3.99072H46.1455V18.9269H97.1851V3.99072Z" fill="white"/>
</mask>
<g mask="url(#mask51_4_14627)">
<path d="M62.9443 3.99072H62.6155V18.9269H62.9443V3.99072Z" fill="#181818"/>
</g>
<path d="M97.1851 3.99072H46.1455V18.9269H97.1851V3.99072Z" fill="#181818"/>
<mask id="mask52_4_14627" style="mask-type:luminance" maskUnits="userSpaceOnUse" x="46" y="3" width="52" height="16">
<path d="M97.1851 3.99072H46.1455V18.9269H97.1851V3.99072Z" fill="white"/>
</mask>
<g mask="url(#mask52_4_14627)">
<path d="M63.2732 3.99072H62.9443V18.9269H63.2732V3.99072Z" fill="#181818"/>
</g>
<path d="M97.1851 3.99072H46.1455V18.9269H97.1851V3.99072Z" fill="#181818"/>
<mask id="mask53_4_14627" style="mask-type:luminance" maskUnits="userSpaceOnUse" x="46" y="3" width="52" height="16">
<path d="M97.1851 3.99072H46.1455V18.9269H97.1851V3.99072Z" fill="white"/>
</mask>
<g mask="url(#mask53_4_14627)">
<path d="M63.602 3.99072H63.2732V18.9269H63.602V3.99072Z" fill="#181818"/>
</g>
<path d="M97.1851 3.99072H46.1455V18.9269H97.1851V3.99072Z" fill="#181818"/>
<mask id="mask54_4_14627" style="mask-type:luminance" maskUnits="userSpaceOnUse" x="46" y="3" width="52" height="16">
<path d="M97.1851 3.99072H46.1455V18.9269H97.1851V3.99072Z" fill="white"/>
</mask>
<g mask="url(#mask54_4_14627)">
<path d="M63.9306 3.99072H63.6018V18.9269H63.9306V3.99072Z" fill="#181818"/>
</g>
<path d="M97.1851 3.99072H46.1455V18.9269H97.1851V3.99072Z" fill="#181818"/>
<mask id="mask55_4_14627" style="mask-type:luminance" maskUnits="userSpaceOnUse" x="46" y="3" width="52" height="16">
<path d="M97.1851 3.99072H46.1455V18.9269H97.1851V3.99072Z" fill="white"/>
</mask>
<g mask="url(#mask55_4_14627)">
<path d="M64.2595 3.99072H63.9307V18.9269H64.2595V3.99072Z" fill="#181818"/>
</g>
<path d="M97.1851 3.99072H46.1455V18.9269H97.1851V3.99072Z" fill="#181818"/>
<mask id="mask56_4_14627" style="mask-type:luminance" maskUnits="userSpaceOnUse" x="46" y="3" width="52" height="16">
<path d="M97.1851 3.99072H46.1455V18.9269H97.1851V3.99072Z" fill="white"/>
</mask>
<g mask="url(#mask56_4_14627)">
<path d="M64.5883 3.99072H64.2595V18.9269H64.5883V3.99072Z" fill="#181818"/>
</g>
<path d="M97.1851 3.99072H46.1455V18.9269H97.1851V3.99072Z" fill="#181818"/>
<mask id="mask57_4_14627" style="mask-type:luminance" maskUnits="userSpaceOnUse" x="46" y="3" width="52" height="16">
<path d="M97.1851 3.99072H46.1455V18.9269H97.1851V3.99072Z" fill="white"/>
</mask>
<g mask="url(#mask57_4_14627)">
<path d="M64.9172 3.99072H64.5884V18.9269H64.9172V3.99072Z" fill="#181818"/>
</g>
<path d="M97.1851 3.99072H46.1455V18.9269H97.1851V3.99072Z" fill="#181818"/>
<mask id="mask58_4_14627" style="mask-type:luminance" maskUnits="userSpaceOnUse" x="46" y="3" width="52" height="16">
<path d="M97.1851 3.99072H46.1455V18.9269H97.1851V3.99072Z" fill="white"/>
</mask>
<g mask="url(#mask58_4_14627)">
<path d="M65.2461 3.99072H64.9172V18.9269H65.2461V3.99072Z" fill="#181818"/>
</g>
<path d="M97.1851 3.99072H46.1455V18.9269H97.1851V3.99072Z" fill="#181818"/>
<mask id="mask59_4_14627" style="mask-type:luminance" maskUnits="userSpaceOnUse" x="46" y="3" width="52" height="16">
<path d="M97.1851 3.99072H46.1455V18.9269H97.1851V3.99072Z" fill="white"/>
</mask>
<g mask="url(#mask59_4_14627)">
<path d="M65.5749 3.99072H65.2461V18.9269H65.5749V3.99072Z" fill="#181818"/>
</g>
<path d="M97.1851 3.99072H46.1455V18.9269H97.1851V3.99072Z" fill="#181818"/>
<mask id="mask60_4_14627" style="mask-type:luminance" maskUnits="userSpaceOnUse" x="46" y="3" width="52" height="16">
<path d="M97.1851 3.99072H46.1455V18.9269H97.1851V3.99072Z" fill="white"/>
</mask>
<g mask="url(#mask60_4_14627)">
<path d="M65.9038 3.99072H65.575V18.9269H65.9038V3.99072Z" fill="#181818"/>
</g>
<path d="M97.1851 3.99072H46.1455V18.9269H97.1851V3.99072Z" fill="#181818"/>
<mask id="mask61_4_14627" style="mask-type:luminance" maskUnits="userSpaceOnUse" x="46" y="3" width="52" height="16">
<path d="M97.1851 3.99072H46.1455V18.9269H97.1851V3.99072Z" fill="white"/>
</mask>
<g mask="url(#mask61_4_14627)">
<path d="M66.2326 3.99072H65.9038V18.9269H66.2326V3.99072Z" fill="#181818"/>
</g>
<path d="M97.1851 3.99072H46.1455V18.9269H97.1851V3.99072Z" fill="#181818"/>
<mask id="mask62_4_14627" style="mask-type:luminance" maskUnits="userSpaceOnUse" x="46" y="3" width="52" height="16">
<path d="M97.1851 3.99072H46.1455V18.9269H97.1851V3.99072Z" fill="white"/>
</mask>
<g mask="url(#mask62_4_14627)">
<path d="M66.5757 3.99072H66.2468V18.9269H66.5757V3.99072Z" fill="#181818"/>
</g>
<path d="M97.1851 3.99072H46.1455V18.9269H97.1851V3.99072Z" fill="#181818"/>
<mask id="mask63_4_14627" style="mask-type:luminance" maskUnits="userSpaceOnUse" x="46" y="3" width="52" height="16">
<path d="M97.1851 3.99072H46.1455V18.9269H97.1851V3.99072Z" fill="white"/>
</mask>
<g mask="url(#mask63_4_14627)">
<path d="M66.9045 3.99072H66.5757V18.9269H66.9045V3.99072Z" fill="#181818"/>
</g>
<path d="M97.1851 3.99072H46.1455V18.9269H97.1851V3.99072Z" fill="#181818"/>
<mask id="mask64_4_14627" style="mask-type:luminance" maskUnits="userSpaceOnUse" x="46" y="3" width="52" height="16">
<path d="M97.1851 3.99072H46.1455V18.9269H97.1851V3.99072Z" fill="white"/>
</mask>
<g mask="url(#mask64_4_14627)">
<path d="M67.219 3.99072H66.8901V18.9269H67.219V3.99072Z" fill="#181818"/>
</g>
<path d="M97.1851 3.99072H46.1455V18.9269H97.1851V3.99072Z" fill="#181818"/>
<mask id="mask65_4_14627" style="mask-type:luminance" maskUnits="userSpaceOnUse" x="46" y="3" width="52" height="16">
<path d="M97.1851 3.99072H46.1455V18.9269H97.1851V3.99072Z" fill="white"/>
</mask>
<g mask="url(#mask65_4_14627)">
<path d="M67.5478 3.99072H67.219V18.9269H67.5478V3.99072Z" fill="#181818"/>
</g>
<path d="M97.1851 3.99072H46.1455V18.9269H97.1851V3.99072Z" fill="#181818"/>
<mask id="mask66_4_14627" style="mask-type:luminance" maskUnits="userSpaceOnUse" x="46" y="3" width="52" height="16">
<path d="M97.1851 3.99072H46.1455V18.9269H97.1851V3.99072Z" fill="white"/>
</mask>
<g mask="url(#mask66_4_14627)">
<path d="M67.8767 3.99072H67.5479V18.9269H67.8767V3.99072Z" fill="#181818"/>
</g>
<path d="M97.1851 3.99072H46.1455V18.9269H97.1851V3.99072Z" fill="#181818"/>
<mask id="mask67_4_14627" style="mask-type:luminance" maskUnits="userSpaceOnUse" x="46" y="3" width="52" height="16">
<path d="M97.1851 3.99072H46.1455V18.9269H97.1851V3.99072Z" fill="white"/>
</mask>
<g mask="url(#mask67_4_14627)">
<path d="M68.2197 3.99072H67.8909V18.9269H68.2197V3.99072Z" fill="#181818"/>
</g>
<path d="M97.1851 3.99072H46.1455V18.9269H97.1851V3.99072Z" fill="#181818"/>
<mask id="mask68_4_14627" style="mask-type:luminance" maskUnits="userSpaceOnUse" x="46" y="3" width="52" height="16">
<path d="M97.1851 3.99072H46.1455V18.9269H97.1851V3.99072Z" fill="white"/>
</mask>
<g mask="url(#mask68_4_14627)">
<path d="M68.5486 3.99072H68.2197V18.9269H68.5486V3.99072Z" fill="#181818"/>
</g>
<path d="M97.1851 3.99072H46.1455V18.9269H97.1851V3.99072Z" fill="#181818"/>
<mask id="mask69_4_14627" style="mask-type:luminance" maskUnits="userSpaceOnUse" x="46" y="3" width="52" height="16">
<path d="M97.1851 3.99072H46.1455V18.9269H97.1851V3.99072Z" fill="white"/>
</mask>
<g mask="url(#mask69_4_14627)">
<path d="M68.8632 3.99072H68.5344V18.9269H68.8632V3.99072Z" fill="#181818"/>
</g>
<path d="M97.1851 3.99072H46.1455V18.9269H97.1851V3.99072Z" fill="#181818"/>
<mask id="mask70_4_14627" style="mask-type:luminance" maskUnits="userSpaceOnUse" x="46" y="3" width="52" height="16">
<path d="M97.1851 3.99072H46.1455V18.9269H97.1851V3.99072Z" fill="white"/>
</mask>
<g mask="url(#mask70_4_14627)">
<path d="M69.1919 3.99072H68.863V18.9269H69.1919V3.99072Z" fill="#181818"/>
</g>
<path d="M97.1851 3.99072H46.1455V18.9269H97.1851V3.99072Z" fill="#181818"/>
<mask id="mask71_4_14627" style="mask-type:luminance" maskUnits="userSpaceOnUse" x="46" y="3" width="52" height="16">
<path d="M97.1851 3.99072H46.1455V18.9269H97.1851V3.99072Z" fill="white"/>
</mask>
<g mask="url(#mask71_4_14627)">
<path d="M69.5351 3.99072H69.2063V18.9269H69.5351V3.99072Z" fill="#181818"/>
</g>
<path d="M97.1851 3.99072H46.1455V18.9269H97.1851V3.99072Z" fill="#181818"/>
<mask id="mask72_4_14627" style="mask-type:luminance" maskUnits="userSpaceOnUse" x="46" y="3" width="52" height="16">
<path d="M97.1851 3.99072H46.1455V18.9269H97.1851V3.99072Z" fill="white"/>
</mask>
<g mask="url(#mask72_4_14627)">
<path d="M69.864 3.99072H69.5352V18.9269H69.864V3.99072Z" fill="#181818"/>
</g>
<path d="M97.1851 3.99072H46.1455V18.9269H97.1851V3.99072Z" fill="#181818"/>
<mask id="mask73_4_14627" style="mask-type:luminance" maskUnits="userSpaceOnUse" x="46" y="3" width="52" height="16">
<path d="M97.1851 3.99072H46.1455V18.9269H97.1851V3.99072Z" fill="white"/>
</mask>
<g mask="url(#mask73_4_14627)">
<path d="M70.1928 3.99072H69.864V18.9269H70.1928V3.99072Z" fill="#181818"/>
</g>
<path d="M97.1851 3.99072H46.1455V18.9269H97.1851V3.99072Z" fill="#181818"/>
<mask id="mask74_4_14627" style="mask-type:luminance" maskUnits="userSpaceOnUse" x="46" y="3" width="52" height="16">
<path d="M97.1851 3.99072H46.1455V18.9269H97.1851V3.99072Z" fill="white"/>
</mask>
<g mask="url(#mask74_4_14627)">
<path d="M70.5217 3.99072H70.1929V18.9269H70.5217V3.99072Z" fill="#181818"/>
</g>
<path d="M97.1851 3.99072H46.1455V18.9269H97.1851V3.99072Z" fill="#181818"/>
<mask id="mask75_4_14627" style="mask-type:luminance" maskUnits="userSpaceOnUse" x="46" y="3" width="52" height="16">
<path d="M97.1851 3.99072H46.1455V18.9269H97.1851V3.99072Z" fill="white"/>
</mask>
<g mask="url(#mask75_4_14627)">
<path d="M70.8361 3.99072H70.5073V18.9269H70.8361V3.99072Z" fill="#181818"/>
</g>
<path d="M97.1851 3.99072H46.1455V18.9269H97.1851V3.99072Z" fill="#181818"/>
<mask id="mask76_4_14627" style="mask-type:luminance" maskUnits="userSpaceOnUse" x="46" y="3" width="52" height="16">
<path d="M97.1851 3.99072H46.1455V18.9269H97.1851V3.99072Z" fill="white"/>
</mask>
<g mask="url(#mask76_4_14627)">
<path d="M71.1792 3.99072H70.8503V18.9269H71.1792V3.99072Z" fill="#181818"/>
</g>
<path d="M97.1851 3.99072H46.1455V18.9269H97.1851V3.99072Z" fill="#181818"/>
<mask id="mask77_4_14627" style="mask-type:luminance" maskUnits="userSpaceOnUse" x="46" y="3" width="52" height="16">
<path d="M97.1851 3.99072H46.1455V18.9269H97.1851V3.99072Z" fill="white"/>
</mask>
<g mask="url(#mask77_4_14627)">
<path d="M71.508 3.99072H71.1792V18.9269H71.508V3.99072Z" fill="#181818"/>
</g>
<path d="M97.1851 3.99072H46.1455V18.9269H97.1851V3.99072Z" fill="#181818"/>
<mask id="mask78_4_14627" style="mask-type:luminance" maskUnits="userSpaceOnUse" x="46" y="3" width="52" height="16">
<path d="M97.1851 3.99072H46.1455V18.9269H97.1851V3.99072Z" fill="white"/>
</mask>
<g mask="url(#mask78_4_14627)">
<path d="M71.8369 3.99072H71.5081V18.9269H71.8369V3.99072Z" fill="#181818"/>
</g>
<path d="M97.1851 3.99072H46.1455V18.9269H97.1851V3.99072Z" fill="#181818"/>
<mask id="mask79_4_14627" style="mask-type:luminance" maskUnits="userSpaceOnUse" x="46" y="3" width="52" height="16">
<path d="M97.1851 3.99072H46.1455V18.9269H97.1851V3.99072Z" fill="white"/>
</mask>
<g mask="url(#mask79_4_14627)">
<path d="M72.1657 3.99072H71.8369V18.9269H72.1657V3.99072Z" fill="#181818"/>
</g>
<path d="M97.1851 3.99072H46.1455V18.9269H97.1851V3.99072Z" fill="#181818"/>
<mask id="mask80_4_14627" style="mask-type:luminance" maskUnits="userSpaceOnUse" x="46" y="3" width="52" height="16">
<path d="M97.1851 3.99072H46.1455V18.9269H97.1851V3.99072Z" fill="white"/>
</mask>
<g mask="url(#mask80_4_14627)">
<path d="M72.4946 3.99072H72.1658V18.9269H72.4946V3.99072Z" fill="#181818"/>
</g>
<path d="M97.1851 3.99072H46.1455V18.9269H97.1851V3.99072Z" fill="#181818"/>
<mask id="mask81_4_14627" style="mask-type:luminance" maskUnits="userSpaceOnUse" x="46" y="3" width="52" height="16">
<path d="M97.1851 3.99072H46.1455V18.9269H97.1851V3.99072Z" fill="white"/>
</mask>
<g mask="url(#mask81_4_14627)">
<path d="M72.8235 3.99072H72.4946V18.9269H72.8235V3.99072Z" fill="#181818"/>
</g>
<path d="M97.1851 3.99072H46.1455V18.9269H97.1851V3.99072Z" fill="#181818"/>
<mask id="mask82_4_14627" style="mask-type:luminance" maskUnits="userSpaceOnUse" x="46" y="3" width="52" height="16">
<path d="M97.1851 3.99072H46.1455V18.9269H97.1851V3.99072Z" fill="white"/>
</mask>
<g mask="url(#mask82_4_14627)">
<path d="M73.1523 3.99072H72.8235V18.9269H73.1523V3.99072Z" fill="#181818"/>
</g>
<path d="M97.1851 3.99072H46.1455V18.9269H97.1851V3.99072Z" fill="#181818"/>
<mask id="mask83_4_14627" style="mask-type:luminance" maskUnits="userSpaceOnUse" x="46" y="3" width="52" height="16">
<path d="M97.1851 3.99072H46.1455V18.9269H97.1851V3.99072Z" fill="white"/>
</mask>
<g mask="url(#mask83_4_14627)">
<path d="M73.4809 3.99072H73.1521V18.9269H73.4809V3.99072Z" fill="#181818"/>
</g>
<path d="M97.1851 3.99072H46.1455V18.9269H97.1851V3.99072Z" fill="#181818"/>
<mask id="mask84_4_14627" style="mask-type:luminance" maskUnits="userSpaceOnUse" x="46" y="3" width="52" height="16">
<path d="M97.1851 3.99072H46.1455V18.9269H97.1851V3.99072Z" fill="white"/>
</mask>
<g mask="url(#mask84_4_14627)">
<path d="M73.8098 3.99072H73.481V18.9269H73.8098V3.99072Z" fill="#181818"/>
</g>
<path d="M97.1851 3.99072H46.1455V18.9269H97.1851V3.99072Z" fill="#181818"/>
<mask id="mask85_4_14627" style="mask-type:luminance" maskUnits="userSpaceOnUse" x="46" y="3" width="52" height="16">
<path d="M97.1851 3.99072H46.1455V18.9269H97.1851V3.99072Z" fill="white"/>
</mask>
<g mask="url(#mask85_4_14627)">
<path d="M74.1386 3.99072H73.8098V18.9269H74.1386V3.99072Z" fill="#181818"/>
</g>
<path d="M97.1851 3.99072H46.1455V18.9269H97.1851V3.99072Z" fill="#181818"/>
<mask id="mask86_4_14627" style="mask-type:luminance" maskUnits="userSpaceOnUse" x="46" y="3" width="52" height="16">
<path d="M97.1851 3.99072H46.1455V18.9269H97.1851V3.99072Z" fill="white"/>
</mask>
<g mask="url(#mask86_4_14627)">
<path d="M74.4675 3.99072H74.1387V18.9269H74.4675V3.99072Z" fill="#181818"/>
</g>
<path d="M97.1851 3.99072H46.1455V18.9269H97.1851V3.99072Z" fill="#181818"/>
<mask id="mask87_4_14627" style="mask-type:luminance" maskUnits="userSpaceOnUse" x="46" y="3" width="52" height="16">
<path d="M97.1851 3.99072H46.1455V18.9269H97.1851V3.99072Z" fill="white"/>
</mask>
<g mask="url(#mask87_4_14627)">
<path d="M74.7964 3.99072H74.4675V18.9269H74.7964V3.99072Z" fill="#181818"/>
</g>
<path d="M97.1851 3.99072H46.1455V18.9269H97.1851V3.99072Z" fill="#181818"/>
<mask id="mask88_4_14627" style="mask-type:luminance" maskUnits="userSpaceOnUse" x="46" y="3" width="52" height="16">
<path d="M97.1851 3.99072H46.1455V18.9269H97.1851V3.99072Z" fill="white"/>
</mask>
<g mask="url(#mask88_4_14627)">
<path d="M75.1252 3.99072H74.7964V18.9269H75.1252V3.99072Z" fill="#181818"/>
</g>
<path d="M97.1851 3.99072H46.1455V18.9269H97.1851V3.99072Z" fill="#181818"/>
<mask id="mask89_4_14627" style="mask-type:luminance" maskUnits="userSpaceOnUse" x="46" y="3" width="52" height="16">
<path d="M97.1851 3.99072H46.1455V18.9269H97.1851V3.99072Z" fill="white"/>
</mask>
<g mask="url(#mask89_4_14627)">
<path d="M75.4541 3.99072H75.1252V18.9269H75.4541V3.99072Z" fill="#181818"/>
</g>
<path d="M97.1851 3.99072H46.1455V18.9269H97.1851V3.99072Z" fill="#181818"/>
<mask id="mask90_4_14627" style="mask-type:luminance" maskUnits="userSpaceOnUse" x="46" y="3" width="52" height="16">
<path d="M97.1851 3.99072H46.1455V18.9269H97.1851V3.99072Z" fill="white"/>
</mask>
<g mask="url(#mask90_4_14627)">
<path d="M75.7971 3.99072H75.4683V18.9269H75.7971V3.99072Z" fill="#181818"/>
</g>
<path d="M97.1851 3.99072H46.1455V18.9269H97.1851V3.99072Z" fill="#181818"/>
<mask id="mask91_4_14627" style="mask-type:luminance" maskUnits="userSpaceOnUse" x="46" y="3" width="52" height="16">
<path d="M97.1851 3.99072H46.1455V18.9269H97.1851V3.99072Z" fill="white"/>
</mask>
<g mask="url(#mask91_4_14627)">
<path d="M76.1259 3.99072H75.7971V18.9269H76.1259V3.99072Z" fill="#181818"/>
</g>
<path d="M97.1851 3.99072H46.1455V18.9269H97.1851V3.99072Z" fill="#181818"/>
<mask id="mask92_4_14627" style="mask-type:luminance" maskUnits="userSpaceOnUse" x="46" y="3" width="52" height="16">
<path d="M97.1851 3.99072H46.1455V18.9269H97.1851V3.99072Z" fill="white"/>
</mask>
<g mask="url(#mask92_4_14627)">
<path d="M76.4404 3.99072H76.1116V18.9269H76.4404V3.99072Z" fill="#181818"/>
</g>
<path d="M97.1851 3.99072H46.1455V18.9269H97.1851V3.99072Z" fill="#181818"/>
<mask id="mask93_4_14627" style="mask-type:luminance" maskUnits="userSpaceOnUse" x="46" y="3" width="52" height="16">
<path d="M97.1851 3.99072H46.1455V18.9269H97.1851V3.99072Z" fill="white"/>
</mask>
<g mask="url(#mask93_4_14627)">
<path d="M76.7693 3.99072H76.4404V18.9269H76.7693V3.99072Z" fill="#181818"/>
</g>
<path d="M97.1851 3.99072H46.1455V18.9269H97.1851V3.99072Z" fill="#181818"/>
<mask id="mask94_4_14627" style="mask-type:luminance" maskUnits="userSpaceOnUse" x="46" y="3" width="52" height="16">
<path d="M97.1851 3.99072H46.1455V18.9269H97.1851V3.99072Z" fill="white"/>
</mask>
<g mask="url(#mask94_4_14627)">
<path d="M77.0981 3.99072H76.7693V18.9269H77.0981V3.99072Z" fill="#181818"/>
</g>
<path d="M97.1851 3.99072H46.1455V18.9269H97.1851V3.99072Z" fill="#181818"/>
<mask id="mask95_4_14627" style="mask-type:luminance" maskUnits="userSpaceOnUse" x="46" y="3" width="52" height="16">
<path d="M97.1851 3.99072H46.1455V18.9269H97.1851V3.99072Z" fill="white"/>
</mask>
<g mask="url(#mask95_4_14627)">
<path d="M77.4411 3.99072H77.1123V18.9269H77.4411V3.99072Z" fill="#181818"/>
</g>
<path d="M97.1851 3.99072H46.1455V18.9269H97.1851V3.99072Z" fill="#181818"/>
<mask id="mask96_4_14627" style="mask-type:luminance" maskUnits="userSpaceOnUse" x="46" y="3" width="52" height="16">
<path d="M97.1851 3.99072H46.1455V18.9269H97.1851V3.99072Z" fill="white"/>
</mask>
<g mask="url(#mask96_4_14627)">
<path d="M77.77 3.99072H77.4412V18.9269H77.77V3.99072Z" fill="#181818"/>
</g>
<path d="M97.1851 3.99072H46.1455V18.9269H97.1851V3.99072Z" fill="#181818"/>
<mask id="mask97_4_14627" style="mask-type:luminance" maskUnits="userSpaceOnUse" x="46" y="3" width="52" height="16">
<path d="M97.1851 3.99072H46.1455V18.9269H97.1851V3.99072Z" fill="white"/>
</mask>
<g mask="url(#mask97_4_14627)">
<path d="M78.0847 3.99072H77.7559V18.9269H78.0847V3.99072Z" fill="#181818"/>
</g>
<path d="M97.1851 3.99072H46.1455V18.9269H97.1851V3.99072Z" fill="#181818"/>
<mask id="mask98_4_14627" style="mask-type:luminance" maskUnits="userSpaceOnUse" x="46" y="3" width="52" height="16">
<path d="M97.1851 3.99072H46.1455V18.9269H97.1851V3.99072Z" fill="white"/>
</mask>
<g mask="url(#mask98_4_14627)">
<path d="M78.4133 3.99072H78.0845V18.9269H78.4133V3.99072Z" fill="#181818"/>
</g>
<path d="M97.1851 3.99072H46.1455V18.9269H97.1851V3.99072Z" fill="#181818"/>
<mask id="mask99_4_14627" style="mask-type:luminance" maskUnits="userSpaceOnUse" x="46" y="3" width="52" height="16">
<path d="M97.1851 3.99072H46.1455V18.9269H97.1851V3.99072Z" fill="white"/>
</mask>
<g mask="url(#mask99_4_14627)">
<path d="M78.7422 3.99072H78.4133V18.9269H78.7422V3.99072Z" fill="#181818"/>
</g>
<path d="M97.1851 3.99072H46.1455V18.9269H97.1851V3.99072Z" fill="#181818"/>
<mask id="mask100_4_14627" style="mask-type:luminance" maskUnits="userSpaceOnUse" x="46" y="3" width="52" height="16">
<path d="M97.1851 3.99072H46.1455V18.9269H97.1851V3.99072Z" fill="white"/>
</mask>
<g mask="url(#mask100_4_14627)">
<path d="M79.0854 3.99072H78.7566V18.9269H79.0854V3.99072Z" fill="#181818"/>
</g>
<path d="M97.1851 3.99072H46.1455V18.9269H97.1851V3.99072Z" fill="#181818"/>
<mask id="mask101_4_14627" style="mask-type:luminance" maskUnits="userSpaceOnUse" x="46" y="3" width="52" height="16">
<path d="M97.1851 3.99072H46.1455V18.9269H97.1851V3.99072Z" fill="white"/>
</mask>
<g mask="url(#mask101_4_14627)">
<path d="M79.4143 3.99072H79.0854V18.9269H79.4143V3.99072Z" fill="#181818"/>
</g>
<path d="M97.1851 3.99072H46.1455V18.9269H97.1851V3.99072Z" fill="#181818"/>
<mask id="mask102_4_14627" style="mask-type:luminance" maskUnits="userSpaceOnUse" x="46" y="3" width="52" height="16">
<path d="M97.1851 3.99072H46.1455V18.9269H97.1851V3.99072Z" fill="white"/>
</mask>
<g mask="url(#mask102_4_14627)">
<path d="M79.7431 3.99072H79.4143V18.9269H79.7431V3.99072Z" fill="#181818"/>
</g>
<path d="M97.1851 3.99072H46.1455V18.9269H97.1851V3.99072Z" fill="#181818"/>
<mask id="mask103_4_14627" style="mask-type:luminance" maskUnits="userSpaceOnUse" x="46" y="3" width="52" height="16">
<path d="M97.1851 3.99072H46.1455V18.9269H97.1851V3.99072Z" fill="white"/>
</mask>
<g mask="url(#mask103_4_14627)">
<path d="M80.0576 3.99072H79.7288V18.9269H80.0576V3.99072Z" fill="#181818"/>
</g>
<path d="M97.1851 3.99072H46.1455V18.9269H97.1851V3.99072Z" fill="#181818"/>
<mask id="mask104_4_14627" style="mask-type:luminance" maskUnits="userSpaceOnUse" x="46" y="3" width="52" height="16">
<path d="M97.1851 3.99072H46.1455V18.9269H97.1851V3.99072Z" fill="white"/>
</mask>
<g mask="url(#mask104_4_14627)">
<path d="M80.4006 3.99072H80.0718V18.9269H80.4006V3.99072Z" fill="#181818"/>
</g>
<path d="M97.1851 3.99072H46.1455V18.9269H97.1851V3.99072Z" fill="#181818"/>
<mask id="mask105_4_14627" style="mask-type:luminance" maskUnits="userSpaceOnUse" x="46" y="3" width="52" height="16">
<path d="M97.1851 3.99072H46.1455V18.9269H97.1851V3.99072Z" fill="white"/>
</mask>
<g mask="url(#mask105_4_14627)">
<path d="M80.7295 3.99072H80.4006V18.9269H80.7295V3.99072Z" fill="#181818"/>
</g>
<path d="M97.1851 3.99072H46.1455V18.9269H97.1851V3.99072Z" fill="#181818"/>
<mask id="mask106_4_14627" style="mask-type:luminance" maskUnits="userSpaceOnUse" x="46" y="3" width="52" height="16">
<path d="M97.1851 3.99072H46.1455V18.9269H97.1851V3.99072Z" fill="white"/>
</mask>
<g mask="url(#mask106_4_14627)">
<path d="M81.0583 3.99072H80.7295V18.9269H81.0583V3.99072Z" fill="#181818"/>
</g>
<path d="M97.1851 3.99072H46.1455V18.9269H97.1851V3.99072Z" fill="#181818"/>
<mask id="mask107_4_14627" style="mask-type:luminance" maskUnits="userSpaceOnUse" x="46" y="3" width="52" height="16">
<path d="M97.1851 3.99072H46.1455V18.9269H97.1851V3.99072Z" fill="white"/>
</mask>
<g mask="url(#mask107_4_14627)">
<path d="M81.3872 3.99072H81.0583V18.9269H81.3872V3.99072Z" fill="#181818"/>
</g>
<path d="M97.1851 3.99072H46.1455V18.9269H97.1851V3.99072Z" fill="#181818"/>
<mask id="mask108_4_14627" style="mask-type:luminance" maskUnits="userSpaceOnUse" x="46" y="3" width="52" height="16">
<path d="M97.1851 3.99072H46.1455V18.9269H97.1851V3.99072Z" fill="white"/>
</mask>
<g mask="url(#mask108_4_14627)">
<path d="M81.7016 3.99072H81.3728V18.9269H81.7016V3.99072Z" fill="#181818"/>
</g>
<path d="M97.1851 3.99072H46.1455V18.9269H97.1851V3.99072Z" fill="#181818"/>
<mask id="mask109_4_14627" style="mask-type:luminance" maskUnits="userSpaceOnUse" x="46" y="3" width="52" height="16">
<path d="M97.1851 3.99072H46.1455V18.9269H97.1851V3.99072Z" fill="white"/>
</mask>
<g mask="url(#mask109_4_14627)">
<path d="M82.0449 3.99072H81.7161V18.9269H82.0449V3.99072Z" fill="#181818"/>
</g>
<path d="M97.1851 3.99072H46.1455V18.9269H97.1851V3.99072Z" fill="#181818"/>
<mask id="mask110_4_14627" style="mask-type:luminance" maskUnits="userSpaceOnUse" x="46" y="3" width="52" height="16">
<path d="M97.1851 3.99072H46.1455V18.9269H97.1851V3.99072Z" fill="white"/>
</mask>
<g mask="url(#mask110_4_14627)">
<path d="M82.3737 3.99072H82.0449V18.9269H82.3737V3.99072Z" fill="#181818"/>
</g>
<path d="M97.1851 3.99072H46.1455V18.9269H97.1851V3.99072Z" fill="#181818"/>
<mask id="mask111_4_14627" style="mask-type:luminance" maskUnits="userSpaceOnUse" x="46" y="3" width="52" height="16">
<path d="M97.1851 3.99072H46.1455V18.9269H97.1851V3.99072Z" fill="white"/>
</mask>
<g mask="url(#mask111_4_14627)">
<path d="M82.7024 3.99072H82.3735V18.9269H82.7024V3.99072Z" fill="#181818"/>
</g>
<path d="M97.1851 3.99072H46.1455V18.9269H97.1851V3.99072Z" fill="#181818"/>
<mask id="mask112_4_14627" style="mask-type:luminance" maskUnits="userSpaceOnUse" x="46" y="3" width="52" height="16">
<path d="M97.1851 3.99072H46.1455V18.9269H97.1851V3.99072Z" fill="white"/>
</mask>
<g mask="url(#mask112_4_14627)">
<path d="M83.0312 3.99072H82.7024V18.9269H83.0312V3.99072Z" fill="#181818"/>
</g>
<path d="M97.1851 3.99072H46.1455V18.9269H97.1851V3.99072Z" fill="#181818"/>
<mask id="mask113_4_14627" style="mask-type:luminance" maskUnits="userSpaceOnUse" x="46" y="3" width="52" height="16">
<path d="M97.1851 3.99072H46.1455V18.9269H97.1851V3.99072Z" fill="white"/>
</mask>
<g mask="url(#mask113_4_14627)">
<path d="M83.3601 3.99072H83.0312V18.9269H83.3601V3.99072Z" fill="#181818"/>
</g>
<path d="M97.1851 3.99072H46.1455V18.9269H97.1851V3.99072Z" fill="#181818"/>
<mask id="mask114_4_14627" style="mask-type:luminance" maskUnits="userSpaceOnUse" x="46" y="3" width="52" height="16">
<path d="M97.1851 3.99072H46.1455V18.9269H97.1851V3.99072Z" fill="white"/>
</mask>
<g mask="url(#mask114_4_14627)">
<path d="M83.6889 3.99072H83.3601V18.9269H83.6889V3.99072Z" fill="#181818"/>
</g>
<path d="M97.1851 3.99072H46.1455V18.9269H97.1851V3.99072Z" fill="#181818"/>
<mask id="mask115_4_14627" style="mask-type:luminance" maskUnits="userSpaceOnUse" x="46" y="3" width="52" height="16">
<path d="M97.1851 3.99072H46.1455V18.9269H97.1851V3.99072Z" fill="white"/>
</mask>
<g mask="url(#mask115_4_14627)">
<path d="M84.0178 3.99072H83.689V18.9269H84.0178V3.99072Z" fill="#181818"/>
</g>
<path d="M97.1851 3.99072H46.1455V18.9269H97.1851V3.99072Z" fill="#181818"/>
<mask id="mask116_4_14627" style="mask-type:luminance" maskUnits="userSpaceOnUse" x="46" y="3" width="52" height="16">
<path d="M97.1851 3.99072H46.1455V18.9269H97.1851V3.99072Z" fill="white"/>
</mask>
<g mask="url(#mask116_4_14627)">
<path d="M84.3466 3.99072H84.0178V18.9269H84.3466V3.99072Z" fill="#181818"/>
</g>
<path d="M97.1851 3.99072H46.1455V18.9269H97.1851V3.99072Z" fill="#181818"/>
<mask id="mask117_4_14627" style="mask-type:luminance" maskUnits="userSpaceOnUse" x="46" y="3" width="52" height="16">
<path d="M97.1851 3.99072H46.1455V18.9269H97.1851V3.99072Z" fill="white"/>
</mask>
<g mask="url(#mask117_4_14627)">
<path d="M84.6755 3.99072H84.3467V18.9269H84.6755V3.99072Z" fill="#181818"/>
</g>
<path d="M97.1851 3.99072H46.1455V18.9269H97.1851V3.99072Z" fill="#181818"/>
<mask id="mask118_4_14627" style="mask-type:luminance" maskUnits="userSpaceOnUse" x="46" y="3" width="52" height="16">
<path d="M97.1851 3.99072H46.1455V18.9269H97.1851V3.99072Z" fill="white"/>
</mask>
<g mask="url(#mask118_4_14627)">
<path d="M85.0044 3.99072H84.6755V18.9269H85.0044V3.99072Z" fill="#181818"/>
</g>
<path d="M97.1851 3.99072H46.1455V18.9269H97.1851V3.99072Z" fill="#181818"/>
<mask id="mask119_4_14627" style="mask-type:luminance" maskUnits="userSpaceOnUse" x="46" y="3" width="52" height="16">
<path d="M97.1851 3.99072H46.1455V18.9269H97.1851V3.99072Z" fill="white"/>
</mask>
<g mask="url(#mask119_4_14627)">
<path d="M85.333 3.99072H85.0042V18.9269H85.333V3.99072Z" fill="#181818"/>
</g>
<path d="M97.1851 3.99072H46.1455V18.9269H97.1851V3.99072Z" fill="#181818"/>
<mask id="mask120_4_14627" style="mask-type:luminance" maskUnits="userSpaceOnUse" x="46" y="3" width="52" height="16">
<path d="M97.1851 3.99072H46.1455V18.9269H97.1851V3.99072Z" fill="white"/>
</mask>
<g mask="url(#mask120_4_14627)">
<path d="M85.6618 3.99072H85.333V18.9269H85.6618V3.99072Z" fill="#181818"/>
</g>
<path d="M97.1851 3.99072H46.1455V18.9269H97.1851V3.99072Z" fill="#181818"/>
<mask id="mask121_4_14627" style="mask-type:luminance" maskUnits="userSpaceOnUse" x="46" y="3" width="52" height="16">
<path d="M97.1851 3.99072H46.1455V18.9269H97.1851V3.99072Z" fill="white"/>
</mask>
<g mask="url(#mask121_4_14627)">
<path d="M85.9907 3.99072H85.6619V18.9269H85.9907V3.99072Z" fill="#181818"/>
</g>
<path d="M97.1851 3.99072H46.1455V18.9269H97.1851V3.99072Z" fill="#181818"/>
<mask id="mask122_4_14627" style="mask-type:luminance" maskUnits="userSpaceOnUse" x="46" y="3" width="52" height="16">
<path d="M97.1851 3.99072H46.1455V18.9269H97.1851V3.99072Z" fill="white"/>
</mask>
<g mask="url(#mask122_4_14627)">
<path d="M86.3195 3.99072H85.9907V18.9269H86.3195V3.99072Z" fill="#181818"/>
</g>
<path d="M97.1851 3.99072H46.1455V18.9269H97.1851V3.99072Z" fill="#181818"/>
<mask id="mask123_4_14627" style="mask-type:luminance" maskUnits="userSpaceOnUse" x="46" y="3" width="52" height="16">
<path d="M97.1851 3.99072H46.1455V18.9269H97.1851V3.99072Z" fill="white"/>
</mask>
<g mask="url(#mask123_4_14627)">
<path d="M86.6626 3.99072H86.3337V18.9269H86.6626V3.99072Z" fill="#181818"/>
</g>
<path d="M97.1851 3.99072H46.1455V18.9269H97.1851V3.99072Z" fill="#181818"/>
<mask id="mask124_4_14627" style="mask-type:luminance" maskUnits="userSpaceOnUse" x="46" y="3" width="52" height="16">
<path d="M97.1851 3.99072H46.1455V18.9269H97.1851V3.99072Z" fill="white"/>
</mask>
<g mask="url(#mask124_4_14627)">
<path d="M86.9914 3.99072H86.6626V18.9269H86.9914V3.99072Z" fill="#181818"/>
</g>
<path d="M97.1851 3.99072H46.1455V18.9269H97.1851V3.99072Z" fill="#181818"/>
<mask id="mask125_4_14627" style="mask-type:luminance" maskUnits="userSpaceOnUse" x="46" y="3" width="52" height="16">
<path d="M97.1851 3.99072H46.1455V18.9269H97.1851V3.99072Z" fill="white"/>
</mask>
<g mask="url(#mask125_4_14627)">
<path d="M87.3061 3.99072H86.9773V18.9269H87.3061V3.99072Z" fill="#181818"/>
</g>
<path d="M97.1851 3.99072H46.1455V18.9269H97.1851V3.99072Z" fill="#181818"/>
<mask id="mask126_4_14627" style="mask-type:luminance" maskUnits="userSpaceOnUse" x="46" y="3" width="52" height="16">
<path d="M97.1851 3.99072H46.1455V18.9269H97.1851V3.99072Z" fill="white"/>
</mask>
<g mask="url(#mask126_4_14627)">
<path d="M87.635 3.99072H87.3062V18.9269H87.635V3.99072Z" fill="#181818"/>
</g>
<path d="M97.1851 3.99072H46.1455V18.9269H97.1851V3.99072Z" fill="#181818"/>
<mask id="mask127_4_14627" style="mask-type:luminance" maskUnits="userSpaceOnUse" x="46" y="3" width="52" height="16">
<path d="M97.1851 3.99072H46.1455V18.9269H97.1851V3.99072Z" fill="white"/>
</mask>
<g mask="url(#mask127_4_14627)">
<path d="M87.9636 3.99072H87.6348V18.9269H87.9636V3.99072Z" fill="#181818"/>
</g>
<path d="M97.1851 3.99072H46.1455V18.9269H97.1851V3.99072Z" fill="#181818"/>
<mask id="mask128_4_14627" style="mask-type:luminance" maskUnits="userSpaceOnUse" x="46" y="3" width="52" height="16">
<path d="M97.1851 3.99072H46.1455V18.9269H97.1851V3.99072Z" fill="white"/>
</mask>
<g mask="url(#mask128_4_14627)">
<path d="M88.3069 3.99072H87.978V18.9269H88.3069V3.99072Z" fill="#181818"/>
</g>
<path d="M97.1851 3.99072H46.1455V18.9269H97.1851V3.99072Z" fill="#181818"/>
<mask id="mask129_4_14627" style="mask-type:luminance" maskUnits="userSpaceOnUse" x="46" y="3" width="52" height="16">
<path d="M97.1851 3.99072H46.1455V18.9269H97.1851V3.99072Z" fill="white"/>
</mask>
<g mask="url(#mask129_4_14627)">
<path d="M88.6357 3.99072H88.3069V18.9269H88.6357V3.99072Z" fill="#181818"/>
</g>
<path d="M97.1851 3.99072H46.1455V18.9269H97.1851V3.99072Z" fill="#181818"/>
<mask id="mask130_4_14627" style="mask-type:luminance" maskUnits="userSpaceOnUse" x="46" y="3" width="52" height="16">
<path d="M97.1851 3.99072H46.1455V18.9269H97.1851V3.99072Z" fill="white"/>
</mask>
<g mask="url(#mask130_4_14627)">
<path d="M88.9502 3.99072H88.6213V18.9269H88.9502V3.99072Z" fill="#181818"/>
</g>
<path d="M97.1851 3.99072H46.1455V18.9269H97.1851V3.99072Z" fill="#181818"/>
<mask id="mask131_4_14627" style="mask-type:luminance" maskUnits="userSpaceOnUse" x="46" y="3" width="52" height="16">
<path d="M97.1851 3.99072H46.1455V18.9269H97.1851V3.99072Z" fill="white"/>
</mask>
<g mask="url(#mask131_4_14627)">
<path d="M89.279 3.99072H88.9502V18.9269H89.279V3.99072Z" fill="#181818"/>
</g>
<path d="M97.1851 3.99072H46.1455V18.9269H97.1851V3.99072Z" fill="#181818"/>
<mask id="mask132_4_14627" style="mask-type:luminance" maskUnits="userSpaceOnUse" x="46" y="3" width="52" height="16">
<path d="M97.1851 3.99072H46.1455V18.9269H97.1851V3.99072Z" fill="white"/>
</mask>
<g mask="url(#mask132_4_14627)">
<path d="M89.622 3.99072H89.2932V18.9269H89.622V3.99072Z" fill="#181818"/>
</g>
<path d="M97.1851 3.99072H46.1455V18.9269H97.1851V3.99072Z" fill="#181818"/>
<mask id="mask133_4_14627" style="mask-type:luminance" maskUnits="userSpaceOnUse" x="46" y="3" width="52" height="16">
<path d="M97.1851 3.99072H46.1455V18.9269H97.1851V3.99072Z" fill="white"/>
</mask>
<g mask="url(#mask133_4_14627)">
<path d="M89.9509 3.99072H89.6221V18.9269H89.9509V3.99072Z" fill="#181818"/>
</g>
<path d="M97.1851 3.99072H46.1455V18.9269H97.1851V3.99072Z" fill="#181818"/>
<mask id="mask134_4_14627" style="mask-type:luminance" maskUnits="userSpaceOnUse" x="46" y="3" width="52" height="16">
<path d="M97.1851 3.99072H46.1455V18.9269H97.1851V3.99072Z" fill="white"/>
</mask>
<g mask="url(#mask134_4_14627)">
<path d="M90.2798 3.99072H89.9509V18.9269H90.2798V3.99072Z" fill="#181818"/>
</g>
<path d="M97.1851 3.99072H46.1455V18.9269H97.1851V3.99072Z" fill="#181818"/>
<mask id="mask135_4_14627" style="mask-type:luminance" maskUnits="userSpaceOnUse" x="46" y="3" width="52" height="16">
<path d="M97.1851 3.99072H46.1455V18.9269H97.1851V3.99072Z" fill="white"/>
</mask>
<g mask="url(#mask135_4_14627)">
<path d="M90.6086 3.99072H90.2798V18.9269H90.6086V3.99072Z" fill="#181818"/>
</g>
<path d="M97.1851 3.99072H46.1455V18.9269H97.1851V3.99072Z" fill="#181818"/>
<mask id="mask136_4_14627" style="mask-type:luminance" maskUnits="userSpaceOnUse" x="46" y="3" width="52" height="16">
<path d="M97.1851 3.99072H46.1455V18.9269H97.1851V3.99072Z" fill="white"/>
</mask>
<g mask="url(#mask136_4_14627)">
<path d="M90.9231 3.99072H90.5942V18.9269H90.9231V3.99072Z" fill="#181818"/>
</g>
<path d="M97.1851 3.99072H46.1455V18.9269H97.1851V3.99072Z" fill="#181818"/>
<mask id="mask137_4_14627" style="mask-type:luminance" maskUnits="userSpaceOnUse" x="46" y="3" width="52" height="16">
<path d="M97.1851 3.99072H46.1455V18.9269H97.1851V3.99072Z" fill="white"/>
</mask>
<g mask="url(#mask137_4_14627)">
<path d="M91.2663 3.99072H90.9375V18.9269H91.2663V3.99072Z" fill="#181818"/>
</g>
<path d="M97.1851 3.99072H46.1455V18.9269H97.1851V3.99072Z" fill="#181818"/>
<mask id="mask138_4_14627" style="mask-type:luminance" maskUnits="userSpaceOnUse" x="46" y="3" width="52" height="16">
<path d="M97.1851 3.99072H46.1455V18.9269H97.1851V3.99072Z" fill="white"/>
</mask>
<g mask="url(#mask138_4_14627)">
<path d="M91.5952 3.99072H91.2664V18.9269H91.5952V3.99072Z" fill="#181818"/>
</g>
<path d="M97.1851 3.99072H46.1455V18.9269H97.1851V3.99072Z" fill="#181818"/>
<mask id="mask139_4_14627" style="mask-type:luminance" maskUnits="userSpaceOnUse" x="46" y="3" width="52" height="16">
<path d="M97.1851 3.99072H46.1455V18.9269H97.1851V3.99072Z" fill="white"/>
</mask>
<g mask="url(#mask139_4_14627)">
<path d="M91.9238 3.99072H91.595V18.9269H91.9238V3.99072Z" fill="#181818"/>
</g>
<path d="M97.1851 3.99072H46.1455V18.9269H97.1851V3.99072Z" fill="#181818"/>
<mask id="mask140_4_14627" style="mask-type:luminance" maskUnits="userSpaceOnUse" x="46" y="3" width="52" height="16">
<path d="M97.1851 3.99072H46.1455V18.9269H97.1851V3.99072Z" fill="white"/>
</mask>
<g mask="url(#mask140_4_14627)">
<path d="M92.2527 3.99072H91.9238V18.9269H92.2527V3.99072Z" fill="#181818"/>
</g>
<path d="M97.1851 3.99072H46.1455V18.9269H97.1851V3.99072Z" fill="#181818"/>
<mask id="mask141_4_14627" style="mask-type:luminance" maskUnits="userSpaceOnUse" x="46" y="3" width="52" height="16">
<path d="M97.1851 3.99072H46.1455V18.9269H97.1851V3.99072Z" fill="white"/>
</mask>
<g mask="url(#mask141_4_14627)">
<path d="M92.5815 3.99072H92.2527V18.9269H92.5815V3.99072Z" fill="#181818"/>
</g>
<path d="M97.1851 3.99072H46.1455V18.9269H97.1851V3.99072Z" fill="#181818"/>
<mask id="mask142_4_14627" style="mask-type:luminance" maskUnits="userSpaceOnUse" x="46" y="3" width="52" height="16">
<path d="M97.1851 3.99072H46.1455V18.9269H97.1851V3.99072Z" fill="white"/>
</mask>
<g mask="url(#mask142_4_14627)">
<path d="M92.9104 3.99072H92.5815V18.9269H92.9104V3.99072Z" fill="#181818"/>
</g>
<path d="M97.1851 3.99072H46.1455V18.9269H97.1851V3.99072Z" fill="#181818"/>
<mask id="mask143_4_14627" style="mask-type:luminance" maskUnits="userSpaceOnUse" x="46" y="3" width="52" height="16">
<path d="M97.1851 3.99072H46.1455V18.9269H97.1851V3.99072Z" fill="white"/>
</mask>
<g mask="url(#mask143_4_14627)">
<path d="M93.2392 3.99072H92.9104V18.9269H93.2392V3.99072Z" fill="#181818"/>
</g>
<path d="M97.1851 3.99072H46.1455V18.9269H97.1851V3.99072Z" fill="#181818"/>
<mask id="mask144_4_14627" style="mask-type:luminance" maskUnits="userSpaceOnUse" x="46" y="3" width="52" height="16">
<path d="M97.1851 3.99072H46.1455V18.9269H97.1851V3.99072Z" fill="white"/>
</mask>
<g mask="url(#mask144_4_14627)">
<path d="M93.5681 3.99072H93.2393V18.9269H93.5681V3.99072Z" fill="#181818"/>
</g>
<path d="M97.1851 3.99072H46.1455V18.9269H97.1851V3.99072Z" fill="#181818"/>
<mask id="mask145_4_14627" style="mask-type:luminance" maskUnits="userSpaceOnUse" x="46" y="3" width="52" height="16">
<path d="M97.1851 3.99072H46.1455V18.9269H97.1851V3.99072Z" fill="white"/>
</mask>
<g mask="url(#mask145_4_14627)">
<path d="M93.8969 3.99072H93.5681V18.9269H93.8969V3.99072Z" fill="#181818"/>
</g>
<path d="M97.1851 3.99072H46.1455V18.9269H97.1851V3.99072Z" fill="#181818"/>
<mask id="mask146_4_14627" style="mask-type:luminance" maskUnits="userSpaceOnUse" x="46" y="3" width="52" height="16">
<path d="M97.1851 3.99072H46.1455V18.9269H97.1851V3.99072Z" fill="white"/>
</mask>
<g mask="url(#mask146_4_14627)">
<path d="M94.2258 3.99072H93.897V18.9269H94.2258V3.99072Z" fill="#181818"/>
</g>
<path d="M97.1851 3.99072H46.1455V18.9269H97.1851V3.99072Z" fill="#181818"/>
<mask id="mask147_4_14627" style="mask-type:luminance" maskUnits="userSpaceOnUse" x="46" y="3" width="52" height="16">
<path d="M97.1851 3.99072H46.1455V18.9269H97.1851V3.99072Z" fill="white"/>
</mask>
<g mask="url(#mask147_4_14627)">
<path d="M94.5544 3.99072H94.2256V18.9269H94.5544V3.99072Z" fill="#181818"/>
</g>
<path d="M97.1851 3.99072H46.1455V18.9269H97.1851V3.99072Z" fill="#181818"/>
<mask id="mask148_4_14627" style="mask-type:luminance" maskUnits="userSpaceOnUse" x="46" y="3" width="52" height="16">
<path d="M97.1851 3.99072H46.1455V18.9269H97.1851V3.99072Z" fill="white"/>
</mask>
<g mask="url(#mask148_4_14627)">
<path d="M94.8833 3.99072H94.5544V18.9269H94.8833V3.99072Z" fill="#181818"/>
</g>
<path d="M97.1851 3.99072H46.1455V18.9269H97.1851V3.99072Z" fill="#181818"/>
<mask id="mask149_4_14627" style="mask-type:luminance" maskUnits="userSpaceOnUse" x="46" y="3" width="52" height="16">
<path d="M97.1851 3.99072H46.1455V18.9269H97.1851V3.99072Z" fill="white"/>
</mask>
<g mask="url(#mask149_4_14627)">
<path d="M95.2121 3.99072H94.8833V18.9269H95.2121V3.99072Z" fill="#181818"/>
</g>
<path d="M97.1851 3.99072H46.1455V18.9269H97.1851V3.99072Z" fill="#181818"/>
<mask id="mask150_4_14627" style="mask-type:luminance" maskUnits="userSpaceOnUse" x="46" y="3" width="52" height="16">
<path d="M97.1851 3.99072H46.1455V18.9269H97.1851V3.99072Z" fill="white"/>
</mask>
<g mask="url(#mask150_4_14627)">
<path d="M95.541 3.99072H95.2122V18.9269H95.541V3.99072Z" fill="#181818"/>
</g>
<path d="M97.1851 3.99072H46.1455V18.9269H97.1851V3.99072Z" fill="#181818"/>
<mask id="mask151_4_14627" style="mask-type:luminance" maskUnits="userSpaceOnUse" x="46" y="3" width="52" height="16">
<path d="M97.1851 3.99072H46.1455V18.9269H97.1851V3.99072Z" fill="white"/>
</mask>
<g mask="url(#mask151_4_14627)">
<path d="M95.8842 3.99072H95.5554V18.9269H95.8842V3.99072Z" fill="#181818"/>
</g>
<path d="M97.1851 3.99072H46.1455V18.9269H97.1851V3.99072Z" fill="#181818"/>
<mask id="mask152_4_14627" style="mask-type:luminance" maskUnits="userSpaceOnUse" x="46" y="3" width="52" height="16">
<path d="M97.1851 3.99072H46.1455V18.9269H97.1851V3.99072Z" fill="white"/>
</mask>
<g mask="url(#mask152_4_14627)">
<path d="M96.2129 3.99072H95.884V18.9269H96.2129V3.99072Z" fill="#181818"/>
</g>
<path d="M97.1851 3.99072H46.1455V18.9269H97.1851V3.99072Z" fill="#181818"/>
<mask id="mask153_4_14627" style="mask-type:luminance" maskUnits="userSpaceOnUse" x="46" y="3" width="52" height="16">
<path d="M97.1851 3.99072H46.1455V18.9269H97.1851V3.99072Z" fill="white"/>
</mask>
<g mask="url(#mask153_4_14627)">
<path d="M96.5276 3.99072H96.1987V18.9269H96.5276V3.99072Z" fill="#181818"/>
</g>
<path d="M97.1851 3.99072H46.1455V18.9269H97.1851V3.99072Z" fill="#181818"/>
<mask id="mask154_4_14627" style="mask-type:luminance" maskUnits="userSpaceOnUse" x="46" y="3" width="52" height="16">
<path d="M97.1851 3.99072H46.1455V18.9269H97.1851V3.99072Z" fill="white"/>
</mask>
<g mask="url(#mask154_4_14627)">
<path d="M96.8564 3.99072H96.5276V18.9269H96.8564V3.99072Z" fill="#181818"/>
</g>
<path d="M97.1851 3.99072H46.1455V18.9269H97.1851V3.99072Z" fill="#181818"/>
<mask id="mask155_4_14627" style="mask-type:luminance" maskUnits="userSpaceOnUse" x="46" y="3" width="52" height="16">
<path d="M97.1851 3.99072H46.1455V18.9269H97.1851V3.99072Z" fill="white"/>
</mask>
<g mask="url(#mask155_4_14627)">
<path d="M97.185 3.99072H96.8562V18.9269H97.185V3.99072Z" fill="#181818"/>
</g>
<path d="M97.1851 3.99072H46.1455V18.9269H97.1851V3.99072Z" fill="#181818"/>
</g>
<rect x="46.1741" y="22.9126" width="31" height="13" rx="6.5" fill="#FBEFEB"/>
<path d="M52.0141 32.9526V32.0926H54.0541C54.4474 32.0926 54.7507 31.9826 54.9641 31.7626C55.1841 31.5359 55.2941 31.2359 55.2941 30.8626C55.2941 30.4826 55.1874 30.1859 54.9741 29.9726C54.7607 29.7526 54.4541 29.6426 54.0541 29.6426H52.0141V29.0026H53.9141C54.3807 29.0026 54.7907 29.0593 55.1441 29.1726C55.5041 29.2859 55.7841 29.4759 55.9841 29.7426C56.1907 30.0026 56.2941 30.3593 56.2941 30.8126V30.9526C56.2941 31.3793 56.2074 31.7426 56.0341 32.0426C55.8607 32.3359 55.5974 32.5626 55.2441 32.7226C54.8907 32.8759 54.4474 32.9526 53.9141 32.9526H52.0141ZM51.2341 32.9526V25.5726H52.2141V32.9526H51.2341ZM52.0141 29.4626V28.8226H53.7841C54.1974 28.8226 54.5007 28.7126 54.6941 28.4926C54.8941 28.2659 54.9941 27.9793 54.9941 27.6326C54.9941 27.2793 54.8941 26.9926 54.6941 26.7726C54.5007 26.5459 54.1974 26.4326 53.7841 26.4326H52.0141V25.5726H53.6141C54.4141 25.5726 55.0107 25.7426 55.4041 26.0826C55.7974 26.4159 55.9941 26.8993 55.9941 27.5326V27.6726C55.9941 28.1193 55.8941 28.4759 55.6941 28.7426C55.4941 29.0026 55.2141 29.1893 54.8541 29.3026C54.5007 29.4093 54.0874 29.4626 53.6141 29.4626H52.0141ZM60.1219 33.0926C59.6552 33.0926 59.2519 33.0126 58.9119 32.8526C58.5719 32.6926 58.2952 32.4826 58.0819 32.2226C57.8686 31.9559 57.7086 31.6593 57.6019 31.3326C57.5019 31.0059 57.4519 30.6726 57.4519 30.3326V30.1526C57.4519 29.8059 57.5019 29.4693 57.6019 29.1426C57.7086 28.8159 57.8686 28.5226 58.0819 28.2626C58.2952 27.9959 58.5652 27.7859 58.8919 27.6326C59.2252 27.4726 59.6152 27.3926 60.0619 27.3926C60.6419 27.3926 61.1186 27.5193 61.4919 27.7726C61.8719 28.0193 62.1519 28.3393 62.3319 28.7326C62.5186 29.1259 62.6119 29.5459 62.6119 29.9926V30.4226H57.8719V29.7026H61.9119L61.6919 30.0926C61.6919 29.7126 61.6319 29.3859 61.5119 29.1126C61.3919 28.8326 61.2119 28.6159 60.9719 28.4626C60.7319 28.3093 60.4286 28.2326 60.0619 28.2326C59.6819 28.2326 59.3652 28.3193 59.1119 28.4926C58.8652 28.6659 58.6786 28.9026 58.5519 29.2026C58.4319 29.5026 58.3719 29.8493 58.3719 30.2426C58.3719 30.6226 58.4319 30.9659 58.5519 31.2726C58.6786 31.5726 58.8719 31.8126 59.1319 31.9926C59.3919 32.1659 59.7219 32.2526 60.1219 32.2526C60.5419 32.2526 60.8819 32.1593 61.1419 31.9726C61.4086 31.7859 61.5686 31.5693 61.6219 31.3226H62.5219C62.4486 31.6893 62.3019 32.0059 62.0819 32.2726C61.8619 32.5393 61.5852 32.7426 61.2519 32.8826C60.9186 33.0226 60.5419 33.0926 60.1219 33.0926ZM66.0549 32.9726C65.6549 32.9726 65.3083 32.9159 65.0149 32.8026C64.7283 32.6893 64.5049 32.4959 64.3449 32.2226C64.1916 31.9426 64.1149 31.5659 64.1149 31.0926V25.9526H65.0349V31.2126C65.0349 31.4993 65.1116 31.7226 65.2649 31.8826C65.4249 32.0359 65.6483 32.1126 65.9349 32.1126H66.8749V32.9726H66.0549ZM63.1949 28.2926V27.5726H66.8749V28.2926H63.1949ZM71.4432 32.9126V31.3126H71.2832V29.4626C71.2832 29.0959 71.1865 28.8193 70.9932 28.6326C70.8065 28.4459 70.5299 28.3526 70.1632 28.3526C69.9565 28.3526 69.7432 28.3559 69.5232 28.3626C69.3032 28.3693 69.0932 28.3759 68.8932 28.3826C68.6932 28.3893 68.5199 28.3993 68.3732 28.4126V27.5726C68.5199 27.5593 68.6732 27.5493 68.8332 27.5426C68.9999 27.5293 69.1699 27.5226 69.3432 27.5226C69.5165 27.5159 69.6832 27.5126 69.8432 27.5126C70.3899 27.5126 70.8365 27.5793 71.1832 27.7126C71.5299 27.8393 71.7865 28.0493 71.9532 28.3426C72.1199 28.6359 72.2032 29.0326 72.2032 29.5326V32.9126H71.4432ZM69.6932 33.0526C69.2932 33.0526 68.9465 32.9859 68.6532 32.8526C68.3665 32.7126 68.1432 32.5126 67.9832 32.2526C67.8299 31.9926 67.7532 31.6793 67.7532 31.3126C67.7532 30.9326 67.8365 30.6159 68.0032 30.3626C68.1765 30.1093 68.4265 29.9193 68.7532 29.7926C69.0799 29.6593 69.4732 29.5926 69.9332 29.5926H71.3832V30.3126H69.8932C69.5065 30.3126 69.2099 30.4059 69.0032 30.5926C68.7965 30.7793 68.6932 31.0193 68.6932 31.3126C68.6932 31.6059 68.7965 31.8426 69.0032 32.0226C69.2099 32.2026 69.5065 32.2926 69.8932 32.2926C70.1199 32.2926 70.3365 32.2526 70.5432 32.1726C70.7499 32.0859 70.9199 31.9459 71.0532 31.7526C71.1932 31.5526 71.2699 31.2793 71.2832 30.9326L71.5432 31.3126C71.5099 31.6926 71.4165 32.0126 71.2632 32.2726C71.1165 32.5259 70.9099 32.7193 70.6432 32.8526C70.3832 32.9859 70.0665 33.0526 69.6932 33.0526Z" fill="#DA613A"/>
</svg>
